<?xml version="1.0" encoding="utf-8"?>
<!-- Generator: Adobe Illustrator 24.1.2, SVG Export Plug-In . SVG Version: 6.00 Build 0)  -->
<svg version="1.1" id="Layer_1" xmlns="http://www.w3.org/2000/svg" xmlns:xlink="http://www.w3.org/1999/xlink" x="0px" y="0px"
	 viewBox="0 0 510 260" style="enable-background:new 0 0 510 260;" xml:space="preserve">
<style type="text/css">
	.st0{fill:none;}
	.st1{fill:#BA0976;stroke:#BA0976;stroke-width:3;stroke-miterlimit:10;}
	.st2{font-family:'StudioGothicAlternateTrial-Extr';}
	.st3{font-size:73px;}
	.st4{letter-spacing:10;}
	.st5{fill:url(#SVGID_1_);}
	.st6{fill:url(#SVGID_2_);}
	.st7{fill:url(#SVGID_3_);}
	.st8{fill:url(#SVGID_4_);}
	.st9{fill:url(#SVGID_5_);}
</style>
<rect x="22.53" y="10.65" class="st0" width="498.82" height="249.41"/>
<text transform="matrix(1 0 0 1 22.5293 67.3677)" class="st1 st2 st3 st4">SAGITTARUS</text>
<g>
	<linearGradient id="SVGID_1_" gradientUnits="userSpaceOnUse" x1="173.1236" y1="257.5836" x2="347.7561" y2="82.9511">
		<stop  offset="0" style="stop-color:#951B81"/>
		<stop  offset="0" style="stop-color:#FFFFFF"/>
		<stop  offset="0.0921" style="stop-color:#E7D5F1"/>
		<stop  offset="0.2283" style="stop-color:#C79DDE"/>
		<stop  offset="0.3653" style="stop-color:#AB6DCE"/>
		<stop  offset="0.5003" style="stop-color:#9546C1"/>
		<stop  offset="0.6326" style="stop-color:#8427B6"/>
		<stop  offset="0.7616" style="stop-color:#7712AF"/>
		<stop  offset="0.8859" style="stop-color:#7004AA"/>
		<stop  offset="1" style="stop-color:#6D00A9"/>
	</linearGradient>
	<path class="st5" d="M302.23,128.47c-3-3-6.98-4.65-11.22-4.65s-8.22,1.65-11.22,4.65c-3,3-4.65,6.98-4.65,11.22
		s1.65,8.22,4.65,11.22c3,3,6.98,4.65,11.22,4.65l0,0c4.24,0,8.22-1.65,11.22-4.65s4.65-6.98,4.65-11.22
		S305.23,131.47,302.23,128.47z M295.92,144.6c-1.31,1.31-3.05,2.03-4.91,2.03l0,0c-1.85,0-3.6-0.72-4.91-2.03
		c-1.31-1.31-2.03-3.05-2.03-4.91c0-1.85,0.72-3.6,2.03-4.91c1.31-1.31,3.05-2.03,4.91-2.03c1.85,0,3.6,0.72,4.91,2.03
		C298.63,137.49,298.63,141.89,295.92,144.6z"/>
	<g>
		<linearGradient id="SVGID_2_" gradientUnits="userSpaceOnUse" x1="157.8811" y1="242.3415" x2="332.5127" y2="67.7098">
			<stop  offset="0" style="stop-color:#951B81"/>
			<stop  offset="0" style="stop-color:#FFFFFF"/>
			<stop  offset="0.0921" style="stop-color:#E7D5F1"/>
			<stop  offset="0.2283" style="stop-color:#C79DDE"/>
			<stop  offset="0.3653" style="stop-color:#AB6DCE"/>
			<stop  offset="0.5003" style="stop-color:#9546C1"/>
			<stop  offset="0.6326" style="stop-color:#8427B6"/>
			<stop  offset="0.7616" style="stop-color:#7712AF"/>
			<stop  offset="0.8859" style="stop-color:#7004AA"/>
			<stop  offset="1" style="stop-color:#6D00A9"/>
		</linearGradient>
		<path class="st6" d="M180.17,224.51c-1.14,0-2.28-0.43-3.15-1.31c-1.74-1.74-1.74-4.57,0-6.31l25.8-25.8
			c1.74-1.74,4.57-1.74,6.31,0c1.74,1.74,1.74,4.57,0,6.31l-25.8,25.8C182.45,224.08,181.31,224.51,180.17,224.51z"/>
	</g>
	<g>
		<linearGradient id="SVGID_3_" gradientUnits="userSpaceOnUse" x1="173.1246" y1="257.5845" x2="347.7563" y2="82.9528">
			<stop  offset="0" style="stop-color:#951B81"/>
			<stop  offset="0" style="stop-color:#FFFFFF"/>
			<stop  offset="0.0921" style="stop-color:#E7D5F1"/>
			<stop  offset="0.2283" style="stop-color:#C79DDE"/>
			<stop  offset="0.3653" style="stop-color:#AB6DCE"/>
			<stop  offset="0.5003" style="stop-color:#9546C1"/>
			<stop  offset="0.6326" style="stop-color:#8427B6"/>
			<stop  offset="0.7616" style="stop-color:#7712AF"/>
			<stop  offset="0.8859" style="stop-color:#7004AA"/>
			<stop  offset="1" style="stop-color:#6D00A9"/>
		</linearGradient>
		<path class="st7" d="M185.94,249.23c-1.14,0-2.28-0.44-3.15-1.31c-1.74-1.74-1.74-4.57,0-6.31l26.89-26.89
			c1.74-1.74,4.57-1.74,6.31,0c1.74,1.74,1.74,4.57,0,6.31l-26.89,26.89C188.22,248.8,187.08,249.23,185.94,249.23z"/>
	</g>
	<g>
		<linearGradient id="SVGID_4_" gradientUnits="userSpaceOnUse" x1="188.368" y1="272.8275" x2="362.9982" y2="98.1973">
			<stop  offset="0" style="stop-color:#951B81"/>
			<stop  offset="0" style="stop-color:#FFFFFF"/>
			<stop  offset="0.0921" style="stop-color:#E7D5F1"/>
			<stop  offset="0.2283" style="stop-color:#C79DDE"/>
			<stop  offset="0.3653" style="stop-color:#AB6DCE"/>
			<stop  offset="0.5003" style="stop-color:#9546C1"/>
			<stop  offset="0.6326" style="stop-color:#8427B6"/>
			<stop  offset="0.7616" style="stop-color:#7712AF"/>
			<stop  offset="0.8859" style="stop-color:#7004AA"/>
			<stop  offset="1" style="stop-color:#6D00A9"/>
		</linearGradient>
		<path class="st8" d="M210.65,255c-1.14,0-2.28-0.43-3.15-1.3c-1.74-1.74-1.74-4.57,0-6.31l25.8-25.8c1.74-1.74,4.57-1.74,6.31,0
			c1.74,1.74,1.74,4.57,0,6.31l-25.8,25.8C212.94,254.57,211.8,255,210.65,255z"/>
	</g>
	<linearGradient id="SVGID_5_" gradientUnits="userSpaceOnUse" x1="173.1232" y1="257.5844" x2="347.7564" y2="82.9512">
		<stop  offset="0" style="stop-color:#951B81"/>
		<stop  offset="0" style="stop-color:#FFFFFF"/>
		<stop  offset="0.0921" style="stop-color:#E7D5F1"/>
		<stop  offset="0.2283" style="stop-color:#C79DDE"/>
		<stop  offset="0.3653" style="stop-color:#AB6DCE"/>
		<stop  offset="0.5003" style="stop-color:#9546C1"/>
		<stop  offset="0.6326" style="stop-color:#8427B6"/>
		<stop  offset="0.7616" style="stop-color:#7712AF"/>
		<stop  offset="0.8859" style="stop-color:#7004AA"/>
		<stop  offset="1" style="stop-color:#6D00A9"/>
	</linearGradient>
	<path class="st9" d="M342.4,88.31c-1.01-1.01-2.45-1.48-3.86-1.25c-0.52,0.08-12.88,2.11-29.73,8.55
		c-9.89,3.78-19.28,8.3-27.91,13.44c-10.61,6.32-20.1,13.59-28.24,21.64l-33.69,6.56c-0.87,0.17-1.67,0.59-2.3,1.22l-30.52,30.43
		c-1.39,1.39-1.71,3.52-0.79,5.25c0.78,1.48,2.31,2.37,3.94,2.37c0.28,0,0.57-0.03,0.85-0.08l34.43-6.7
		c-2.24,4.4-4.34,8.96-6.29,13.69c-0.68,1.67-0.3,3.58,0.97,4.85l8.43,8.43l-7.84,7.84c-1.74,1.74-1.74,4.57,0,6.31
		c0.87,0.87,2.01,1.31,3.16,1.31c1.14,0,2.28-0.43,3.15-1.31l7.84-7.84l8.43,8.43c0.85,0.85,1.99,1.31,3.16,1.31
		c0.57,0,1.15-0.11,1.7-0.34c4.73-1.95,9.3-4.04,13.69-6.28l-6.7,34.43c-0.37,1.93,0.55,3.87,2.29,4.79
		c0.66,0.35,1.38,0.52,2.09,0.52c1.16,0,2.3-0.45,3.16-1.31l30.43-30.52c0.63-0.63,1.05-1.43,1.22-2.3l6.56-33.69
		c8.04-8.14,15.32-17.63,21.64-28.24c5.14-8.64,9.66-18.03,13.44-27.92c6.44-16.85,8.47-29.22,8.55-29.73
		C343.88,90.76,343.41,89.32,342.4,88.31z M202.8,164.88L222,145.75l20.65-4.02c-4.48,5.51-8.63,11.45-12.45,17.82L202.8,164.88z
		 M284.96,208.71l-19.13,19.19l5.33-27.39c6.36-3.81,12.31-7.97,17.82-12.45L284.96,208.71z M326.68,118.93
		c-5.63,14.69-16.02,35.87-33.5,53.35c-8.05,8.05-17.42,15.2-28,21.39c-0.19,0.09-0.37,0.2-0.55,0.32
		c-5.66,3.28-11.67,6.29-18.01,9.02l-6.31-6.31l12.74-12.74c1.74-1.74,1.74-4.57,0-6.31c-1.74-1.74-4.57-1.74-6.31,0L234,190.4
		l-6.31-6.31c2.73-6.34,5.74-12.35,9.02-18.01c0.12-0.17,0.22-0.35,0.32-0.54c6.19-10.58,13.35-19.96,21.4-28.01
		c17.48-17.48,38.66-27.87,53.35-33.5c8.93-3.42,16.61-5.56,21.69-6.78C332.24,102.33,330.1,110.01,326.68,118.93z"/>
</g>
</svg>
