<?xml version="1.0" encoding="utf-8"?>
<!-- Generator: Adobe Illustrator 24.1.2, SVG Export Plug-In . SVG Version: 6.00 Build 0)  -->
<svg version="1.1" id="Layer_1" xmlns="http://www.w3.org/2000/svg" xmlns:xlink="http://www.w3.org/1999/xlink" x="0px" y="0px"
	 viewBox="0 0 1024 768" style="enable-background:new 0 0 1024 768;" xml:space="preserve">
<style type="text/css">
	.st0{fill:#AAACAE;}
	.st1{fill:#535557;}
	.st2{fill:#717375;}
	.st3{fill:#EBEBEC;}
	.st4{fill:#818386;}
	.st5{fill:#D9D9DB;}
	.st6{opacity:0.8;fill:#D9D9DB;}
	.st7{opacity:0.7;fill:#EBEBEC;}
	.st8{fill:#B1B2B4;}
	.st9{opacity:0.6;fill:#D9D9DB;}
	.st10{opacity:0.6;fill:#EBEBEC;}
	.st11{fill:#C9CACC;}
	.st12{opacity:0.5;fill:#EBEBEC;}
	.st13{fill:#D3D4D5;}
	.st14{opacity:0.5;fill:#D9D9DB;}
	.st15{fill:#C7C8CA;}
	.st16{fill:#2A416F;}
	.st17{fill:#FFFFFF;}
	.st18{opacity:0.5;fill:#C9CACC;}
	.st19{fill:url(#SVGID_1_);}
	.st20{fill:url(#SVGID_2_);}
	.st21{fill:url(#SVGID_3_);}
	.st22{fill:url(#SVGID_4_);}
	.st23{fill:#C6C8D0;}
	.st24{fill:url(#SVGID_5_);}
	.st25{fill:#6B6C6F;}
	.st26{fill:#BEBFC1;}
</style>
<g>
	<g>
		<path class="st0" d="M798.84,354.42c0,0,1.37-0.73,3.94-2.11c0.64-0.34,1.36-0.72,2.14-1.15c0.77-0.45,1.62-0.94,2.53-1.48
			c0.91-0.54,1.89-1.11,2.93-1.72c1.04-0.62,2.1-1.34,3.25-2.07c0.57-0.36,1.16-0.75,1.76-1.13c0.29-0.2,0.6-0.39,0.91-0.59
			c0.3-0.21,0.6-0.43,0.9-0.64c1.23-0.86,2.51-1.77,3.85-2.71c2.61-1.97,5.42-4.12,8.26-6.6c2.87-2.46,5.76-5.25,8.67-8.31
			l0.56-0.57l0.53-0.6c0.35-0.4,0.7-0.81,1.06-1.22c0.7-0.82,1.45-1.62,2.14-2.48c1.36-1.76,2.82-3.49,4.11-5.42
			c0.33-0.47,0.66-0.95,1-1.43l0.5-0.71c0.16-0.24,0.31-0.5,0.47-0.75c0.62-1,1.24-2.02,1.88-3.04c0.61-1.03,1.16-2.11,1.75-3.19
			c0.61-1.06,1.11-2.19,1.63-3.32c2.09-4.51,3.8-9.39,4.83-14.56c1.03-5.16,1.37-10.62,0.76-16.09c-0.6-5.48-2.15-10.96-4.71-16.08
			c-2.61-5.09-6.23-9.75-10.61-13.7c-2.2-1.95-4.55-3.8-7.08-5.38c-2.53-1.58-5.2-2.96-7.98-4.09c-5.58-2.24-11.62-3.42-17.7-3.38
			c-6.07,0.04-12.17,1.26-17.82,3.56c-5.64,2.32-10.9,5.68-15.05,10.07c-2.07,2.19-3.87,4.63-5.16,7.29
			c-1.3,2.65-2.1,5.53-2.13,8.42c-0.02,2.86,0.7,5.76,2.18,8.12c1.48,2.38,3.8,4.12,6.43,5.09c2.63,0.99,5.53,1.27,8.36,1.08
			c2.84-0.2,5.64-0.87,8.27-1.88c5.27-2.03,9.92-5.47,13.13-9.82c1.6-2.17,2.85-4.56,3.63-7.07c0.4-1.25,0.7-2.53,0.87-3.81
			c0.18-1.28,0.27-2.58,0.24-3.86c-0.07-5.16-1.66-10.1-3.89-14.48c-2.23-4.39-5.14-8.22-8.36-11.48
			c-3.22-3.26-6.75-5.97-10.27-8.24c-3.54-2.28-7.09-4.13-10.52-5.68c-6.86-3.1-13.19-5.02-18.44-6.36
			c-5.25-1.33-9.46-2.07-12.33-2.5c-1.44-0.22-2.53-0.35-3.28-0.43c-0.73-0.08-1.1-0.12-1.1-0.12l0.2-2.37c0,0,0.4,0.05,1.18,0.12
			c0.76,0.1,1.9,0.23,3.36,0.45c2.92,0.44,7.21,1.19,12.55,2.55c5.35,1.37,11.8,3.31,18.83,6.49c3.51,1.59,7.17,3.49,10.83,5.84
			c3.65,2.35,7.3,5.17,10.67,8.58c3.37,3.41,6.44,7.44,8.79,12.08c0.33,0.56,0.56,1.17,0.84,1.77c0.26,0.6,0.52,1.2,0.79,1.8
			c0.25,0.61,0.47,1.25,0.7,1.87c0.19,0.64,0.42,1.27,0.6,1.93c0.72,2.6,1.21,5.33,1.23,8.15c0.03,1.4-0.07,2.82-0.27,4.23
			c-0.19,1.41-0.52,2.82-0.96,4.2c-0.87,2.76-2.23,5.39-3.98,7.77c-3.5,4.75-8.51,8.43-14.18,10.62c-2.84,1.09-5.86,1.81-8.97,2.03
			c-3.1,0.21-6.32-0.09-9.36-1.22c-3.02-1.12-5.84-3.21-7.6-6.05c-1.77-2.83-2.57-6.14-2.55-9.42c0.03-3.29,0.94-6.52,2.36-9.43
			c1.43-2.92,3.37-5.55,5.57-7.88c2.21-2.34,4.71-4.39,7.38-6.16c2.67-1.78,5.53-3.26,8.49-4.48c5.93-2.42,12.32-3.71,18.71-3.74
			c6.39-0.04,12.75,1.2,18.6,3.55c2.92,1.18,5.72,2.63,8.36,4.29c2.65,1.65,5.09,3.58,7.4,5.63c4.59,4.13,8.39,9.03,11.14,14.38
			c2.7,5.38,4.33,11.16,4.95,16.9c0.64,5.75,0.28,11.44-0.79,16.81c-1.07,5.38-2.85,10.44-5,15.1c-0.55,1.17-1.06,2.33-1.69,3.43
			c-0.61,1.1-1.17,2.22-1.8,3.29c-0.66,1.05-1.3,2.09-1.94,3.13c-0.16,0.25-0.31,0.51-0.48,0.76l-0.52,0.74
			c-0.34,0.49-0.68,0.98-1.02,1.47c-1.31,1.98-2.82,3.75-4.21,5.55c-0.71,0.89-1.47,1.71-2.2,2.55c-0.36,0.42-0.73,0.84-1.09,1.25
			l-0.54,0.62l-0.57,0.58c-2.97,3.14-5.93,5.98-8.85,8.49c-2.89,2.54-5.75,4.72-8.41,6.73c-1.36,0.96-2.66,1.88-3.9,2.75
			c-0.32,0.22-0.62,0.43-0.92,0.65c-0.31,0.2-0.62,0.4-0.93,0.6c-0.61,0.39-1.2,0.78-1.78,1.15c-1.17,0.74-2.25,1.47-3.3,2.1
			c-1.06,0.62-2.05,1.21-2.97,1.75c-0.92,0.54-1.77,1.04-2.56,1.5c-0.8,0.43-1.52,0.82-2.17,1.17c-2.6,1.39-3.99,2.13-3.99,2.13
			L798.84,354.42z"/>
		<path class="st1" d="M798.81,354.37c0,0,1.37-0.74,3.94-2.11c0.64-0.34,1.36-0.72,2.14-1.14c0.77-0.46,1.62-0.95,2.52-1.48
			c0.92-0.54,1.89-1.11,2.93-1.72c1.04-0.62,2.1-1.34,3.25-2.07c0.57-0.37,1.16-0.75,1.76-1.13c0.3-0.2,0.6-0.39,0.91-0.59
			c0.3-0.21,0.6-0.42,0.91-0.64c1.22-0.86,2.51-1.77,3.84-2.71c2.6-1.97,5.42-4.11,8.25-6.61c2.86-2.45,5.76-5.24,8.66-8.3
			l0.55-0.57l0.53-0.6c0.36-0.4,0.71-0.8,1.06-1.21c0.7-0.82,1.46-1.62,2.15-2.49c1.35-1.76,2.82-3.48,4.09-5.41
			c0.33-0.47,0.67-0.95,1-1.43l0.5-0.72c0.17-0.24,0.31-0.49,0.47-0.75c0.62-1,1.24-2.02,1.88-3.03c0.61-1.03,1.16-2.12,1.75-3.19
			c0.61-1.06,1.11-2.19,1.63-3.32c2.09-4.51,3.8-9.38,4.83-14.55c1.04-5.15,1.37-10.61,0.77-16.07c-0.59-5.47-2.15-10.95-4.71-16.06
			c-2.61-5.08-6.22-9.74-10.59-13.68c-2.2-1.95-4.54-3.8-7.08-5.37c-2.52-1.58-5.19-2.97-7.97-4.09
			c-5.57-2.23-11.61-3.42-17.68-3.38c-6.07,0.04-12.16,1.26-17.8,3.56c-5.63,2.31-10.88,5.68-15.03,10.05
			c-2.07,2.18-3.86,4.62-5.15,7.27c-1.3,2.65-2.09,5.52-2.12,8.39c-0.03,2.86,0.69,5.74,2.16,8.09c1.48,2.36,3.79,4.09,6.4,5.07
			c2.62,0.98,5.51,1.27,8.34,1.08c2.84-0.2,5.63-0.87,8.26-1.88c5.26-2.03,9.9-5.45,13.1-9.79c1.6-2.17,2.84-4.55,3.62-7.06
			c0.4-1.24,0.69-2.52,0.87-3.8c0.18-1.28,0.27-2.57,0.24-3.86c-0.07-5.15-1.66-10.08-3.89-14.45c-2.23-4.38-5.14-8.21-8.35-11.47
			c-3.22-3.26-6.73-5.96-10.27-8.24c-3.53-2.27-7.09-4.12-10.51-5.66c-6.85-3.11-13.18-5.01-18.42-6.36
			c-5.25-1.33-9.46-2.06-12.33-2.49c-1.43-0.22-2.53-0.35-3.27-0.44c-0.73-0.08-1.11-0.12-1.11-0.12l0.05-0.65
			c0,0,0.38,0.04,1.13,0.11c0.74,0.09,1.86,0.22,3.29,0.45c2.89,0.43,7.1,1.17,12.39,2.51c5.27,1.35,11.62,3.27,18.53,6.39
			c3.45,1.56,7.03,3.42,10.6,5.72c3.57,2.29,7.11,5.03,10.37,8.33c3.25,3.3,6.21,7.18,8.47,11.63c2.26,4.44,3.89,9.46,3.96,14.74
			c0.03,1.31-0.06,2.64-0.25,3.96c-0.17,1.32-0.47,2.62-0.89,3.91c-0.8,2.57-2.08,5.02-3.72,7.25c-3.28,4.45-8.02,7.94-13.39,10.01
			c-2.68,1.03-5.54,1.72-8.44,1.91c-2.9,0.2-5.87-0.1-8.61-1.11c-2.73-1.02-5.17-2.85-6.72-5.33c-1.55-2.48-2.29-5.48-2.26-8.45
			c0.02-2.99,0.85-5.95,2.18-8.67c1.33-2.73,3.17-5.22,5.26-7.44c2.11-2.22,4.5-4.2,7.08-5.89c2.56-1.71,5.32-3.14,8.18-4.31
			c5.72-2.33,11.89-3.57,18.05-3.6c6.16-0.04,12.28,1.16,17.92,3.42c2.82,1.14,5.53,2.54,8.08,4.14c2.56,1.6,4.93,3.46,7.16,5.44
			c4.44,3.99,8.09,8.72,10.74,13.87c2.59,5.18,4.17,10.74,4.77,16.28c0.61,5.54,0.27,11.06-0.78,16.27
			c-1.04,5.22-2.77,10.15-4.87,14.7c-0.53,1.14-1.03,2.27-1.65,3.35c-0.6,1.08-1.15,2.17-1.76,3.21c-0.64,1.03-1.27,2.05-1.89,3.06
			c-0.17,0.25-0.31,0.51-0.48,0.75l-0.51,0.73c-0.34,0.48-0.67,0.96-1,1.44c-1.29,1.94-2.77,3.68-4.13,5.45
			c-0.7,0.87-1.45,1.68-2.16,2.5c-0.36,0.42-0.72,0.82-1.07,1.23l-0.53,0.61l-0.55,0.57c-2.93,3.09-5.84,5.89-8.71,8.36
			c-2.85,2.5-5.68,4.65-8.29,6.64c-1.34,0.95-2.63,1.86-3.86,2.73c-0.31,0.22-0.61,0.43-0.91,0.64c-0.31,0.2-0.61,0.4-0.91,0.59
			c-0.61,0.39-1.2,0.77-1.76,1.13c-1.15,0.73-2.22,1.46-3.26,2.08c-1.05,0.62-2.03,1.2-2.95,1.73c-0.91,0.53-1.76,1.03-2.53,1.48
			c-0.79,0.43-1.51,0.81-2.16,1.15c-2.58,1.38-3.95,2.12-3.95,2.12L798.81,354.37z"/>
		<polygon class="st2" points="749.21,198.04 748.86,197.99 749.14,195.91 749.5,195.97 		"/>
		<polygon class="st2" points="753.84,198.79 753.48,198.72 753.85,196.66 754.2,196.72 		"/>
		<polygon class="st2" points="758.43,199.7 758.08,199.63 758.52,197.58 758.87,197.66 		"/>
		<polygon class="st2" points="762.98,200.79 762.64,200.7 763.15,198.67 763.5,198.77 		"/>
		<polygon class="st2" points="767.5,202.04 767.15,201.94 767.74,199.94 768.09,200.04 		"/>
		<polygon class="st2" points="771.95,203.47 771.61,203.35 772.29,201.37 772.63,201.49 		"/>
		<polygon class="st2" points="776.34,205.07 776.01,204.95 776.77,202.99 777.1,203.12 		"/>
		<polygon class="st2" points="780.65,206.88 780.33,206.73 781.18,204.82 781.51,204.96 		"/>
		<polygon class="st2" points="784.87,208.88 784.55,208.73 785.5,206.85 785.82,207.02 		"/>
		<polygon class="st2" points="788.96,211.12 788.66,210.94 789.7,209.13 790.01,209.32 		"/>
		<polygon class="st2" points="792.9,213.59 792.6,213.41 793.77,211.66 794.07,211.86 		"/>
		<polygon class="st2" points="796.65,216.33 796.38,216.11 797.66,214.46 797.95,214.69 		"/>
		<polygon class="st2" points="800.18,219.34 799.92,219.11 801.33,217.56 801.6,217.81 		"/>
		<polygon class="st2" points="803.44,222.63 803.21,222.36 804.76,220.95 804.99,221.22 		"/>
		<polygon class="st2" points="806.36,226.2 806.15,225.93 807.82,224.67 808.04,224.96 		"/>
		<polygon class="st2" points="808.93,230.03 808.75,229.74 810.54,228.66 810.74,228.97 		"/>
		<polygon class="st2" points="811.04,234.13 810.9,233.81 812.8,232.93 812.95,233.27 		"/>
		<polygon class="st2" points="812.73,238.41 812.62,238.08 814.61,237.43 814.72,237.78 		"/>
		<polygon class="st2" points="813.81,242.85 813.76,242.51 815.81,242.14 815.88,242.5 		"/>
		<polygon class="st2" points="814.2,247.38 814.2,247.04 816.3,247.01 816.3,247.38 		"/>
		<path class="st2" d="M813.81,251.89c0,0,0.02-0.08,0.04-0.17c0.02-0.09,0.02-0.17,0.02-0.17l2.06,0.35c0,0-0.01,0.09-0.03,0.19
			c-0.02,0.09-0.03,0.18-0.03,0.18L813.81,251.89z"/>
		<polygon class="st2" points="812.57,256.24 812.69,255.92 814.66,256.65 814.53,257 		"/>
		<polygon class="st2" points="810.54,260.28 810.72,259.99 812.51,261.07 812.31,261.39 		"/>
		<polygon class="st2" points="807.81,263.9 808.04,263.65 809.61,265.02 809.36,265.3 		"/>
		<polygon class="st2" points="804.5,267.03 804.77,266.81 806.1,268.43 805.81,268.66 		"/>
		<polygon class="st2" points="800.74,269.61 801.04,269.44 802.11,271.23 801.79,271.42 		"/>
		<path class="st2" d="M796.63,271.62c0,0,0.08-0.03,0.17-0.06c0.08-0.04,0.16-0.07,0.16-0.07l0.8,1.94c0,0-0.09,0.04-0.18,0.07
			c-0.08,0.03-0.17,0.07-0.17,0.07L796.63,271.62z"/>
		<polygon class="st2" points="792.28,272.99 792.62,272.91 793.11,274.94 792.76,275.03 		"/>
		<polygon class="st2" points="787.79,273.66 788.13,273.65 788.29,275.73 787.92,275.75 		"/>
		<polygon class="st2" points="783.28,273.51 783.61,273.55 783.36,275.63 782.99,275.58 		"/>
		<polygon class="st2" points="778.98,272.36 779.3,272.49 778.53,274.44 778.18,274.29 		"/>
		<polygon class="st2" points="775.27,270.06 775.52,270.28 774.18,271.89 773.89,271.63 		"/>
		<path class="st2" d="M772.57,266.67c0,0,0.04,0.07,0.07,0.15c0.04,0.07,0.09,0.14,0.09,0.14l-1.81,1.04c0,0-0.06-0.09-0.1-0.17
			c-0.05-0.09-0.09-0.17-0.09-0.17L772.57,266.67z"/>
		<polygon class="st2" points="771.11,262.52 771.18,262.85 769.13,263.29 769.06,262.92 		"/>
		<polygon class="st2" points="770.87,258.1 770.85,258.43 768.76,258.31 768.78,257.93 		"/>
		<path class="st2" d="M771.75,253.71c0,0-0.03,0.08-0.05,0.16c-0.02,0.08-0.05,0.17-0.05,0.17l-2-0.61c0,0,0.02-0.09,0.05-0.18
			c0.03-0.09,0.06-0.18,0.06-0.18L771.75,253.71z"/>
		<path class="st2" d="M773.57,249.58c0,0-0.04,0.08-0.08,0.15c-0.04,0.07-0.08,0.15-0.08,0.15l-1.85-0.99c0,0,0.04-0.08,0.09-0.16
			c0.05-0.08,0.09-0.16,0.09-0.16L773.57,249.58z"/>
		<polygon class="st2" points="776.09,245.78 775.88,246.06 774.22,244.79 774.45,244.49 		"/>
		<polygon class="st2" points="779.16,242.38 778.92,242.63 777.44,241.14 777.7,240.88 		"/>
		<polygon class="st2" points="782.64,239.37 782.36,239.58 781.07,237.93 781.36,237.71 		"/>
		<polygon class="st2" points="786.43,236.76 786.14,236.94 785.03,235.16 785.34,234.97 		"/>
		<polygon class="st2" points="790.49,234.54 790.17,234.69 789.25,232.82 789.58,232.66 		"/>
		<polygon class="st2" points="794.74,232.73 794.42,232.86 793.67,230.9 794.02,230.77 		"/>
		<path class="st2" d="M799.15,231.34c0,0-0.09,0.02-0.17,0.04c-0.09,0.03-0.17,0.05-0.17,0.05l-0.55-2.02c0,0,0.09-0.02,0.18-0.05
			c0.09-0.02,0.18-0.04,0.18-0.04L799.15,231.34z"/>
		<polygon class="st2" points="803.66,230.38 803.32,230.43 802.97,228.37 803.33,228.31 		"/>
		<polygon class="st2" points="808.26,229.85 807.91,229.87 807.76,227.78 808.12,227.76 		"/>
		<polygon class="st2" points="812.88,229.76 812.53,229.76 812.58,227.67 812.94,227.68 		"/>
		<polygon class="st2" points="817.48,230.14 817.13,230.1 817.39,228.02 817.75,228.06 		"/>
		<polygon class="st2" points="822.02,230.97 821.68,230.9 822.14,228.85 822.5,228.93 		"/>
		<polygon class="st2" points="826.46,232.25 826.13,232.13 826.79,230.14 827.14,230.27 		"/>
		<path class="st2" d="M830.76,233.94c0,0-0.08-0.04-0.16-0.08c-0.08-0.03-0.16-0.07-0.16-0.07l0.85-1.92c0,0,0.09,0.04,0.17,0.07
			c0.09,0.04,0.17,0.08,0.17,0.08L830.76,233.94z"/>
		<polygon class="st2" points="834.88,236.05 834.57,235.87 835.6,234.05 835.91,234.23 		"/>
		<polygon class="st2" points="838.8,238.51 838.51,238.31 839.69,236.58 839.99,236.79 		"/>
		<polygon class="st2" points="842.47,241.33 842.2,241.11 843.52,239.49 843.81,239.72 		"/>
		<polygon class="st2" points="845.91,244.43 845.65,244.19 847.12,242.7 847.39,242.95 		"/>
		<polygon class="st2" points="849,247.86 848.78,247.59 850.39,246.24 850.62,246.53 		"/>
		<polygon class="st2" points="851.76,251.57 851.56,251.28 853.29,250.09 853.49,250.4 		"/>
		<polygon class="st2" points="854.14,255.52 853.97,255.22 855.8,254.21 855.99,254.53 		"/>
		<path class="st2" d="M856.13,259.68c0,0-0.04-0.08-0.07-0.16c-0.04-0.08-0.07-0.16-0.07-0.16l1.93-0.81c0,0,0.03,0.08,0.08,0.17
			c0.04,0.08,0.07,0.17,0.07,0.17L856.13,259.68z"/>
		<polygon class="st2" points="857.65,264.04 857.55,263.71 859.56,263.09 859.65,263.45 		"/>
		<polygon class="st2" points="858.74,268.53 858.67,268.18 860.73,267.77 860.8,268.13 		"/>
		<polygon class="st2" points="859.42,273.1 859.37,272.75 861.45,272.54 861.5,272.9 		"/>
		<path class="st2" d="M859.67,277.72c0.01,0-0.01-0.35-0.01-0.35l2.09-0.02c0,0,0.01,0.36,0.01,0.36L859.67,277.72z"/>
		<polygon class="st2" points="859.46,282.34 859.49,282 861.58,282.16 861.54,282.52 		"/>
		<polygon class="st2" points="858.79,287.41 858.85,287.06 860.91,287.41 860.85,287.77 		"/>
		<polygon class="st2" points="857.8,291.94 857.89,291.6 859.91,292.12 859.83,292.47 		"/>
		<polygon class="st2" points="856.48,296.4 856.58,296.06 858.57,296.72 858.46,297.07 		"/>
		
			<rect x="855.69" y="299.93" transform="matrix(0.3659 -0.9307 0.9307 0.3659 262.6324 987.4048)" class="st2" width="0.36" height="2.1"/>
		<polygon class="st2" points="852.91,304.98 853.06,304.66 854.94,305.58 854.79,305.91 		"/>
		<polygon class="st2" points="850.72,309.09 850.89,308.78 852.71,309.82 852.53,310.13 		"/>
		<polygon class="st2" points="848.28,313.06 848.47,312.76 850.23,313.9 850.04,314.21 		"/>
		<polygon class="st2" points="845.62,316.91 845.83,316.62 847.52,317.84 847.32,318.14 		"/>
		<polygon class="st2" points="842.77,320.6 842.99,320.33 844.63,321.63 844.4,321.92 		"/>
		<polygon class="st2" points="839.74,324.16 839.98,323.89 841.54,325.27 841.31,325.55 		"/>
		<polygon class="st2" points="836.55,327.58 836.8,327.32 838.31,328.78 838.05,329.04 		"/>
		<polygon class="st2" points="833.22,330.85 833.48,330.61 834.92,332.13 834.66,332.38 		"/>
		<polygon class="st2" points="829.76,334.01 830.03,333.78 831.41,335.35 831.14,335.59 		"/>
		<path class="st2" d="M826.19,337.04c0,0,0.08-0.05,0.14-0.11c0.07-0.06,0.14-0.11,0.14-0.11l1.32,1.62c0,0-0.07,0.06-0.14,0.12
			c-0.06,0.06-0.14,0.11-0.14,0.11L826.19,337.04z"/>
		<polygon class="st2" points="822.49,339.91 822.77,339.69 824.03,341.36 823.75,341.58 		"/>
		
			<rect x="819.26" y="342.37" transform="matrix(0.8188 -0.574 0.574 0.8188 -48.673 532.6082)" class="st2" width="0.36" height="2.09"/>
		<polygon class="st2" points="814.81,345.3 815.11,345.11 816.28,346.85 815.97,347.04 		"/>
		<polygon class="st2" points="810.87,347.84 811.17,347.64 812.27,349.43 811.97,349.62 		"/>
		
			<rect x="807.33" y="349.98" transform="matrix(0.8661 -0.4999 0.4999 0.8661 -67.3411 450.6885)" class="st2" width="0.36" height="2.09"/>
		<polygon class="st2" points="802.73,352.5 803.04,352.33 804.04,354.17 803.73,354.34 		"/>
		<path class="st2" d="M799.45,355.63c0,0,1.38-0.74,3.97-2.12c0.64-0.34,1.37-0.73,2.16-1.16c0.78-0.45,1.62-0.95,2.55-1.49
			c0.92-0.54,1.9-1.12,2.96-1.74c1.04-0.62,2.12-1.35,3.28-2.09c0.57-0.37,1.16-0.75,1.76-1.14c0.31-0.2,0.62-0.4,0.93-0.59
			c0.3-0.21,0.61-0.43,0.92-0.65c1.24-0.87,2.53-1.78,3.88-2.74c2.63-1.99,5.47-4.16,8.34-6.68c2.9-2.48,5.83-5.3,8.77-8.41
			l0.56-0.58l0.53-0.61c0.36-0.41,0.71-0.82,1.07-1.23c0.72-0.83,1.48-1.65,2.18-2.52c1.37-1.78,2.86-3.54,4.16-5.49
			c0.34-0.49,0.68-0.97,1.02-1.45l0.51-0.74c0.17-0.24,0.32-0.5,0.48-0.76c0.63-1.02,1.27-2.05,1.91-3.09
			c0.63-1.05,1.18-2.16,1.78-3.24c0.62-1.08,1.13-2.23,1.66-3.38c2.13-4.6,3.88-9.57,4.93-14.87c1.05-5.28,1.41-10.87,0.78-16.5
			c-0.62-5.62-2.22-11.28-4.85-16.54c-2.69-5.24-6.41-10.04-10.91-14.09c-2.27-2.01-4.67-3.9-7.27-5.52
			c-2.59-1.63-5.33-3.05-8.2-4.21c-5.74-2.3-11.96-3.52-18.22-3.48c-6.25,0.03-12.52,1.29-18.33,3.66c-2.9,1.19-5.7,2.64-8.31,4.38
			c-2.62,1.73-5.05,3.73-7.2,6c-2.15,2.28-4.03,4.82-5.39,7.63c-1.38,2.8-2.24,5.88-2.26,9c-0.03,3.1,0.73,6.24,2.38,8.86
			c1.64,2.65,4.25,4.58,7.1,5.64c2.86,1.06,5.94,1.36,8.93,1.16c2.99-0.2,5.92-0.91,8.66-1.96c5.5-2.12,10.36-5.7,13.73-10.27
			c1.68-2.28,3-4.81,3.83-7.47c0.43-1.32,0.73-2.67,0.92-4.03c0.2-1.36,0.29-2.72,0.26-4.07c-0.08-5.43-1.74-10.56-4.04-15.07
			c-2.3-4.53-5.31-8.48-8.61-11.82c-3.31-3.35-6.9-6.11-10.5-8.43c-3.61-2.32-7.22-4.2-10.7-5.77c-6.96-3.14-13.36-5.08-18.66-6.44
			c-5.31-1.35-9.56-2.09-12.46-2.53c-2.9-0.44-4.47-0.57-4.47-0.57l0.05-0.65c0,0,0.4,0.04,1.17,0.12c0.77,0.09,1.89,0.22,3.35,0.45
			c2.91,0.44,7.18,1.19,12.52,2.54c5.33,1.36,11.76,3.31,18.77,6.48c3.5,1.59,7.14,3.48,10.78,5.82c3.63,2.34,7.26,5.13,10.61,8.52
			c3.34,3.38,6.39,7.39,8.73,11.99c2.32,4.57,4.03,9.79,4.11,15.35c0.03,1.39-0.07,2.78-0.27,4.17c-0.19,1.4-0.51,2.78-0.94,4.14
			c-0.85,2.73-2.2,5.32-3.93,7.66c-3.46,4.69-8.42,8.33-14.02,10.49c-2.81,1.08-5.79,1.8-8.85,2.01c-3.06,0.21-6.23-0.1-9.21-1.2
			c-2.96-1.1-5.69-3.13-7.41-5.9c-1.73-2.76-2.51-5.99-2.48-9.22c0.03-3.23,0.92-6.41,2.32-9.28c1.4-2.88,3.32-5.47,5.51-7.79
			c2.19-2.32,4.66-4.35,7.31-6.1c2.65-1.77,5.49-3.24,8.43-4.44c5.88-2.4,12.23-3.68,18.57-3.71c6.34-0.04,12.65,1.2,18.46,3.52
			c2.91,1.18,5.68,2.62,8.3,4.26c2.63,1.64,5.06,3.55,7.35,5.58c4.55,4.1,8.33,8.97,11.06,14.28c2.67,5.34,4.3,11.07,4.91,16.77
			c0.64,5.7,0.28,11.36-0.79,16.7c-1.07,5.35-2.84,10.37-4.98,15.01c-0.53,1.15-1.05,2.32-1.67,3.41c-0.6,1.1-1.17,2.21-1.79,3.27
			c-0.65,1.05-1.29,2.08-1.93,3.11c-0.16,0.25-0.31,0.52-0.48,0.76l-0.52,0.74c-0.34,0.49-0.68,0.98-1.02,1.46
			c-1.31,1.98-2.81,3.75-4.19,5.54c-0.71,0.89-1.47,1.7-2.2,2.54c-0.36,0.42-0.71,0.83-1.08,1.23l-0.54,0.61l-0.56,0.58
			c-2.96,3.13-5.91,5.96-8.82,8.46c-2.88,2.54-5.73,4.71-8.38,6.71c-1.36,0.96-2.66,1.87-3.9,2.75c-0.31,0.21-0.62,0.44-0.92,0.65
			c-0.31,0.2-0.62,0.4-0.93,0.59c-0.61,0.4-1.2,0.78-1.78,1.15c-1.16,0.73-2.24,1.46-3.29,2.09c-1.06,0.62-2.05,1.2-2.97,1.74
			c-0.92,0.54-1.77,1.04-2.56,1.49c-0.79,0.43-1.52,0.81-2.17,1.16c-2.6,1.39-3.98,2.14-3.98,2.14L799.45,355.63z"/>
	</g>
	<g>
		<g>
			<g>
				<path class="st3" d="M801.12,395.51c0,0,3.01,14.45-0.5,25.65c0,0-1.51,4.71-3.93,4.08c-2.41-0.63-6.07-2.84-5.53-7.93
					c0.55-5.24-0.57-14.16-2.17-19.41L801.12,395.51z"/>
				<path class="st4" d="M796.47,415.43c1.44,0.5,2.55,1.44,3.35,2.74c0.34,0.56,0.77,1.43,1,2.3c-0.07,0.23-0.13,0.46-0.2,0.7
					c0,0-1.51,4.71-3.93,4.08c-2.41-0.63-6.07-2.84-5.53-7.93c0.06-0.47,0.09-0.97,0.11-1.49
					C792.89,415.06,794.78,414.85,796.47,415.43z"/>
				<path class="st5" d="M798.11,409.01c0.02-1.5-0.14-2.98-0.36-4.46c1.51-1.26,2.84-2.71,4.1-4.22c0.54,4.68,0.93,12.04-0.65,18.7
					c-1.13-1.48-2.49-2.71-3.95-3.87C797.77,413.15,798.07,411.09,798.11,409.01z"/>
				<path class="st4" d="M791.03,409.04c-0.03-0.25-0.05-0.51-0.08-0.76c3.5-1.67,7.48-2.4,11.33-2.23
					c0.01,0.47,0.02,0.94,0.03,1.42C798.56,406.93,794.52,407.54,791.03,409.04z"/>
				<path class="st6" d="M801.12,395.51c0,0,0.27,1.28,0.55,3.35c-0.95,1.81-2.25,3.42-3.88,4.65c-0.97,0.73-2.31,1.51-2.88,2.62
					c-0.54,1.04,0.03,10.35-1.08,13.64c-0.34,1.02-0.74,2.03-1.16,3.02c-1.07-1.26-1.77-3.03-1.52-5.47
					c0.55-5.24-0.57-14.16-2.17-19.41L801.12,395.51z"/>
				<path class="st5" d="M794.27,432.99c-0.4-1.13-1.12-2.25-2.05-3.02c-1-0.82-2.23-1.66-3.58-1.69c-0.64-0.01-1.24,0.21-1.84,0.42
					c1.26-3.95,4.18-10.78,4.18-10.78s2.96-3.36,6.45-0.59c0,0,3.31,2.1,2.35,5.71c-0.65,2.46-3.04,7.39-5.34,10.48
					C794.38,433.34,794.33,433.16,794.27,432.99z"/>
				<path class="st5" d="M794.27,432.99c-0.4-1.13-1.12-2.25-2.05-3.02c-1-0.82-2.23-1.66-3.58-1.69c-0.64-0.01-1.24,0.21-1.84,0.42
					c1.26-3.95,4.18-10.78,4.18-10.78s2.96-3.36,6.45-0.59c0,0,3.31,2.1,2.35,5.71c-0.65,2.46-3.04,7.39-5.34,10.48
					C794.38,433.34,794.33,433.16,794.27,432.99z"/>
				<path class="st5" d="M790.98,417.92c0,0,1.84-2.09,4.33-1.61c-0.09,0.03-0.2,0.06-0.3,0.1c-1.39,0.55-2.27,1.5-2.81,2.87
					c-0.88,2.17-3.27,8.19-3.69,9.01c-0.6,0.01-1.16,0.22-1.72,0.41C788.07,424.75,790.98,417.92,790.98,417.92z"/>
				<path class="st3" d="M792.22,429.98c-0.28-0.23-0.58-0.46-0.9-0.68l4.32-11.29c0,0,0.86-0.45,2.5,1.01c0,0,2.13,1.78,0.97,5.2
					c-0.94,2.76-3.31,6.64-4.86,8.71C793.83,431.81,793.14,430.73,792.22,429.98z"/>
				<path class="st3" d="M786.91,428.38c1.93-0.35,3.39-0.81,5.24,1.01c0.88,0.87,1.64,1.91,2.19,3c0.67,1.32,0.56,2.67,0.46,4.1
					c-0.12,1.56-0.34,3.17-1.09,4.57c-0.44,0.83-1.05,1.54-1.73,2.18c-0.44,0.42-1.24,1.33-1.94,1.13
					c-0.32-0.09-0.41-0.36-0.39-0.67c-0.21,0.14-0.41,0.28-0.62,0.4c-0.64,0.36-1.32,0.28-1.66-0.4c-0.09-0.16-0.1-0.33-0.07-0.5
					c-0.24,0.11-0.5,0.2-0.72,0.22c-1.06,0.12-1.4-0.57-0.9-1.43c0.55-0.94,1.29-1.54,2.08-2.26c0.37-0.34,0.63-0.76,0.82-1.2
					c-0.06,0.07-0.13,0.14-0.19,0.21c-0.98,1.06-2.65,2.56-4.19,2.35c-1.45-0.2-0.6-1.93-0.05-2.53c0.76-0.81,1.74-1.4,2.53-2.18
					c0.63-0.62,1.3-1.35,1.57-2.21c0.19-0.62,0.27-2.24-0.85-1.67c-0.35,0.18-0.63,0.53-0.84,0.86c-0.46,0.74-0.92,3.33-2.19,3.11
					c-0.65-0.11-0.84-0.95-0.88-1.51c-0.12-1.6,0.62-3.27,1.48-4.59C785.4,429.7,786.29,428.94,786.91,428.38z"/>
				<path class="st7" d="M792.87,434.86c-0.6-0.75-1.26-1.45-2.06-2c0.2-0.59,0.32-1.24,0.45-1.72c0.17-0.67,0.24-1.34,0.21-2.03
					c0.17,0.13,0.33,0.27,0.49,0.44c0.88,0.86,1.64,1.9,2.2,3c0.67,1.32,0.56,2.67,0.45,4.1c-0.02,0.34-0.06,0.68-0.09,1.01
					C794.1,436.62,793.46,435.61,792.87,434.86z"/>
				<path class="st3" d="M794.69,386.25c0,0,5.71,3.61,8.06,8.26c2.35,4.65-12.33,13.51-13.95,8.1
					C787.19,397.2,793.47,385.4,794.69,386.25z"/>
				<path class="st5" d="M791.57,404.3c0.45-0.55,0.84-1.12,1.16-1.54c1.14-1.53,2.18-3.09,3-4.83c1.33-2.87,2.63-5.83,2.44-9.02
					c-1.86-1.64-3.47-2.66-3.47-2.66c-1.22-0.85-7.5,10.95-5.88,16.36C789.18,403.83,790.21,404.32,791.57,404.3z"/>
				<path class="st3" d="M800.18,391.7c0,0,3.14,2.38,2.02,5.28c-1.12,2.91-5.35,5.22-7.9,6.26c0,0,5.53-2.83,6.77-5.65
					C802.32,394.77,800.18,391.7,800.18,391.7z"/>
				<path class="st8" d="M790.62,434.74c0.02-0.04,0.06,0.02,0.05,0.05c-0.58,1.8-1.42,3.41-2.94,4.6
					c-0.01,0.01-0.02-0.01-0.01-0.03C788.99,438.08,789.96,436.42,790.62,434.74z"/>
				<path class="st8" d="M787.06,443.18c2.59-1.5,4.6-4,5.27-6.94c0.01-0.02,0.03,0.01,0.03,0.02c-0.26,2.75-2.63,6.05-5.26,7.02
					C787.07,443.29,787.02,443.2,787.06,443.18z"/>
				<path class="st3" d="M784.95,430.38c0.45-0.67,1.33-1.43,1.95-1.99c1.93-0.35,3.39-0.81,5.24,1.01
					c0.01,0.01,0.01,0.02,0.01,0.02c-1.2-0.79-2.89-1.81-3.82-0.42c-0.34,0.51-0.76,1.88-0.06,2.3c1.48,0.89,0.83,3.4-0.19,4.51
					c-0.79,0.87-1.16,1.26-2.1,2.56c-0.4,0.55-0.05,1.35,0.74,1.16c0.91-0.22,1.59-0.95,2.18-1.65c0.67-0.8,1.2-1.81,1.64-2.76
					c-0.21,1.36-0.9,2.78-1.75,3.86c-0.4,0.5-1.49,1.62-1.17,2.37c0.4,0.93,1.75-0.02,2.15-0.42c1.05-1.02,1.62-2.23,2.18-3.52
					c-0.25,1.43-0.82,2.75-1.89,3.85c-0.18,0.18-1.58,1.5-0.72,1.78c0.93,0.3,2.14-1.02,2.67-1.64c0.72-0.84,1.25-1.79,1.7-2.78
					c-0.25,1.16-0.77,2.28-1.5,3.22c-0.43,0.55-1.18,1.04-1.37,1.73c-0.07,0.25,0.04,0.41,0.21,0.49c-0.33,0.24-0.7,0.41-1.04,0.3
					c-0.32-0.09-0.41-0.36-0.39-0.67c-0.21,0.14-0.41,0.28-0.62,0.4c-0.64,0.36-1.32,0.28-1.66-0.4c-0.09-0.16-0.1-0.33-0.07-0.5
					c-0.24,0.11-0.5,0.2-0.72,0.22c-1.06,0.12-1.4-0.57-0.9-1.43c0.55-0.94,1.29-1.54,2.08-2.26c0.37-0.34,0.63-0.76,0.82-1.2
					c-0.06,0.07-0.13,0.14-0.19,0.21c-0.98,1.06-2.65,2.56-4.19,2.35c-1.45-0.2-0.6-1.93-0.05-2.53c0.76-0.81,1.74-1.4,2.53-2.18
					c0.63-0.62,1.3-1.35,1.57-2.21c0.19-0.62,0.27-2.24-0.85-1.67c-0.35,0.18-0.63,0.53-0.84,0.86c-0.46,0.74-0.92,3.33-2.19,3.11
					c-0.65-0.11-0.84-0.95-0.88-1.51C783.35,433.36,784.1,431.69,784.95,430.38z"/>
			</g>
			<path class="st8" d="M791.96,441.48c0.61-0.72,1.14-1.58,1.56-2.46c-0.26,0.64-0.6,1.25-0.88,1.77
				c-0.08,0.14-0.16,0.28-0.25,0.42c-0.79,1-1.75,1.85-2.81,2.5c-0.02,0.01-0.04-0.03-0.02-0.05
				C790.35,442.9,791.24,442.34,791.96,441.48z"/>
		</g>
		<g>
			<g>
				<g>
					<path class="st3" d="M755.65,360.53c-0.3-1.15-0.76-2.07-1.32-2.81c-1.39,0.13-2.83,0.55-3.9,0.98
						c-1.95,0.78-3.9,2.05-4.76,3.98c1.47,10.96,8.32,21.78,8.32,21.78l10.51-6.52C761.17,373.58,756.97,365.63,755.65,360.53z"/>
					<path class="st5" d="M755.65,360.53c-0.3-1.15-0.76-2.07-1.32-2.81c-1.39,0.13-2.83,0.55-3.9,0.98
						c-1.73,0.7-3.47,1.78-4.43,3.38c-0.09,0.89,0.04,1.79,0.43,2.6c0.78,1.58,2.06,2.12,3.48,2.96c1.76,1.02,4.25,8.14,3.51,9.91
						c-0.56,1.31-0.96,2.53-1.23,3.77c1.05,1.96,1.8,3.15,1.8,3.15l10.51-6.52C761.17,373.58,756.97,365.63,755.65,360.53z"/>
					<path class="st5" d="M751.04,367.58c2.34,0.2,4.97-0.24,6.37-2.1c-0.76-1.78-1.39-3.48-1.77-4.95
						c-0.3-1.15-0.76-2.07-1.32-2.81c-1.39,0.13-2.83,0.55-3.9,0.98c-1.73,0.7-3.47,1.78-4.43,3.38c-0.07,0.8,0.03,1.62,0.34,2.36
						C747.27,366.13,749.31,367.44,751.04,367.58z"/>
					<path class="st4" d="M758.68,368.23c0.11,0.23,0.23,0.46,0.34,0.69c-2.69,2.79-6.15,4.87-9.82,6.07
						c-0.18-0.42-0.36-0.87-0.54-1.32C752.37,372.86,755.94,370.86,758.68,368.23z"/>
					<path class="st3" d="M763.27,390.84c0,0-6.62-1.37-10.45-4.89c-3.84-3.52,6.78-16.98,10.2-12.49
						C766.44,377.96,764.71,391.21,763.27,390.84z"/>
					<path class="st3" d="M756.21,387.68c0,0-3.78-1.12-3.75-4.24c0.03-3.11,3.18-6.77,5.19-8.64c0,0-4.19,4.6-4.35,7.68
						C753.14,385.56,756.21,387.68,756.21,387.68z"/>
					<g>
						<path class="st5" d="M752.36,349.51c0.38,1.27,1.1,2.52,2.08,3.41c1.05,0.95,2.36,1.93,3.83,2.03
							c0.7,0.05,1.37-0.16,2.04-0.36c-1.59,4.26-3.57,9.23-3.57,9.23s-3.27,5.23-8.65,2.66c0,0-3.52-2.47-2.28-6.38
							c0.84-2.66,3.72-7.93,6.39-11.2C752.24,349.12,752.3,349.33,752.36,349.51z"/>
						<path class="st3" d="M755.09,354.38l0.3-0.67c-0.34-0.25-0.66-0.52-0.95-0.79c-0.96-0.88-1.67-2.1-2.06-3.33
							c-0.21,0.25-0.43,0.53-0.66,0.83C752.04,352.11,753.55,353.71,755.09,354.38z"/>
						<path class="st3" d="M751.12,351.22c-1.65,2.25-3.59,5.31-4.51,7.66c-1.45,3.68,0.79,5.74,0.79,5.74
							c1.72,1.69,2.68,1.24,2.68,1.24l4.7-10.76C753.18,354.38,751.69,352.91,751.12,351.22z"/>
					</g>
					<path class="st5" d="M767.04,346.51c-0.76-0.55-1.84-0.48-2.67-0.1c-0.31,0.14-2.55,1.36-2.53,1.58
						c-0.15-1.47,1.07-5.41,1.27-5.91c0.27-0.66,0.64-1.3,0.87-1.97c0.2-0.48,0.28-0.97,0.22-1.49c-0.58-1.02-1.24-1.19-1.97-0.49
						c-0.01,0.01-0.01,0.01-0.02,0.01c-0.3,0.34-0.58,0.73-0.84,1.13c-0.26,0.36-0.49,0.78-0.7,1.21c-0.09,0.17-0.17,0.32-0.24,0.45
						c-0.03,0.06-0.06,0.12-0.09,0.18c0.3-1.53,0.94-2.96,1.11-4.53c0.09-0.85-0.95-1.31-1.61-0.94c-1.12,0.63-1.77,1.77-2.23,2.95
						c0.03-0.59,0.06-1.18,0.16-1.77c0.13-0.82-0.27-1.83-1.31-1.58c-1.18,0.27-1.82,1.17-2.07,2.36c-0.02,0.09-0.04,0.2-0.05,0.29
						c-0.12-0.36-0.32-0.65-0.68-0.78c-1.5-0.55-2.03,0.99-2.42,2.1c-0.92,2.68-1.12,5.5-0.56,8.28c0.3,1.49,0.62,3.04,1.39,4.36
						c1.35,2.32,4.69,4.31,7.41,3.64c2.16-0.54,3.13-2.55,4.32-4.2c0.45-0.62,0.96-1.18,1.5-1.72c0.63-0.65,1.62-1.24,1.99-2.09
						C767.47,347.04,767.34,346.72,767.04,346.51z"/>
					<path class="st9" d="M767.31,346.83c-1.76-1.01-4.02,1.15-5.38,1.97c-2.08,1.25-2.94,2.43-2.93,4.89
						c0.01,0.51-0.78,0.61-0.79,0.1c-0.01-1.3-0.01-3,0.98-4c0.78-0.79,1.71-1.35,2.66-1.91c-0.09-1.53,1.07-5.31,1.27-5.8
						c0.27-0.66,0.64-1.3,0.87-1.97c0.1-0.23,0.16-0.46,0.2-0.69c-0.01-0.02-0.01-0.04-0.01-0.06c0.06-1.11-1.09-0.53-1.47-0.1
						c-0.34,0.4-0.91,0.69-1.23,1.12c-0.53,0.7-1.48,2.45-1.41,2.09c0.1-0.48,0.2-0.96,0.31-1.43c-0.01,0.02-0.02,0.04-0.04,0.07
						c0.28-1.44,0.86-2.8,1.08-4.26c-0.53-1.16-1.92-0.5-2.4,0.26c-0.41,0.67-1.46,2.53-1.44,2.08c0.01-0.24,0.04-0.47,0.08-0.71
						c-0.01,0.04-0.03,0.07-0.04,0.1c0.03-0.59,0.06-1.18,0.16-1.77c0.07-0.42,0-0.88-0.23-1.21c-1.86-0.51-2.9,3.25-2.99,2.93
						c-0.06-0.23-0.14-0.44-0.22-0.66c0,0,0,0.01,0,0.01c-0.12-0.36-0.32-0.65-0.68-0.78c-0.14-0.05-0.27-0.08-0.38-0.1
						c-2.21,0.55-1.98,7.52-1.85,8.99c0.2,2.29,0.64,4.77,2.02,6.68c0.93,1.3,2.08,2.14,3.4,2.75c0.89,0.23,1.79,0.28,2.62,0.07
						c2.16-0.54,3.13-2.55,4.32-4.2c0.45-0.62,0.96-1.18,1.5-1.72c0.63-0.65,1.62-1.24,1.99-2.09
						C767.39,347.22,767.39,347.01,767.31,346.83z"/>
					<path class="st9" d="M762.49,342.59c-0.82,1.89-1.32,3.76-1.46,5.79c0.27-0.17,0.54-0.33,0.82-0.5
						c-0.09-1.53,1.07-5.31,1.27-5.8c0.27-0.66,0.64-1.3,0.87-1.97c0.09-0.21,0.15-0.43,0.19-0.65
						C763.74,340.55,762.94,341.56,762.49,342.59z"/>
					<path class="st10" d="M759.25,346.02c-0.44-0.9-1.52-0.96-2.33-1.13c-0.43-0.09-1.26,0.02-1.7-0.02
						c-0.89-0.09-1.81,0.04-2.45,0.71c-0.33,0.34-0.14,0.93,0.23,1.2c0.4,0.28,0.83,0.5,1.29,0.64c0.84,0.27,1.58,0.26,2.45,0.1
						c0.75-0.14,1.68-0.34,2.28-0.84C759.29,346.44,759.34,346.21,759.25,346.02z"/>
					<path class="st9" d="M765.36,348.85c-1.59,1.28-2.22,3.06-3.41,4.64c-0.51,0.67-1.09,1.29-1.74,1.75
						c1.66-0.75,2.54-2.49,3.59-3.94c0.45-0.62,0.96-1.18,1.5-1.72c0.63-0.65,1.62-1.24,1.99-2.09c0.02-0.05,0.03-0.1,0.05-0.15
						C766.9,347.97,766.11,348.25,765.36,348.85z"/>
				</g>
			</g>
			<path class="st11" d="M759.99,345.5c-0.01-0.01-0.02-0.02-0.04-0.03c-0.01-1.39,0.09-2.96,0.42-4.35
				c-0.09,0.12-0.16,0.24-0.23,0.37c-0.38,1.21-0.42,2.69-0.33,3.9c-0.81-0.44-1.78-0.65-2.69-0.74c-0.04-2.16,0.32-4.29,0.57-6.42
				c-0.03,0.08-0.06,0.16-0.09,0.24c-0.13,0.42-0.26,0.86-0.33,1.3c-0.05,0.37-0.11,0.75-0.17,1.12c-0.15,1.24-0.2,2.48-0.13,3.75
				c-0.04-0.01-0.09-0.01-0.14-0.01c-0.68-0.04-1.75-0.18-2.7-0.1c-0.04-1.29,0.13-2.57,0.31-3.85c0.12-0.86,0.28-1.8,0-2.6
				c-0.08-0.1-0.15-0.21-0.22-0.31c0.49,1.12,0.1,2.63-0.1,3.76c-0.18,0.97-0.27,2.02-0.16,3.02c-0.31,0.03-0.6,0.1-0.84,0.2
				C755.33,344.36,757.87,344.71,759.99,345.5z"/>
			<path class="st11" d="M762.09,347.74c-1.26,0.69-2.5,1.36-3.41,2.5c-0.57,0.72-1.05,2.48-0.57,3.35
				c0.02,0.03,0.09,0.01,0.09-0.03c0,0,0-0.01-0.01-0.02c-0.01-0.03-0.06-0.01-0.07,0.02c0.26-0.94,0.11-1.96,0.58-2.95
				c0.65-1.36,2.34-1.96,3.46-2.81C762.23,347.75,762.14,347.71,762.09,347.74z"/>
			<path class="st12" d="M746.76,365.94c0,0,2.05,8.18,5.19,13.81c0,0,0.58-0.75,0.3-2.13c-0.28-1.38-3.14-9.16-3.14-9.16
				L746.76,365.94z"/>
			<path class="st3" d="M756.1,354.83c-1.5-0.83-2.38-1.72-3.17-3.25c-0.67-1.3-1.02-2.79-1.29-4.22c-0.58-3.1-0.62-7.29,1.19-10
				c0.03-0.04-0.04-0.05-0.06-0.02c-2.08,2.66-2.01,6.6-1.65,9.78c0.34,3.02,1.87,6.67,4.9,7.8
				C756.06,354.92,756.16,354.86,756.1,354.83z"/>
		</g>
		<path class="st3" d="M749.53,404.73c0,0-2.15,1.2-3.35,4.16c-1.19,2.96,11.73,15,15.33,17.47c3.6,2.46,20.65,0.52,21.83-2.58
			c1.19-3.09,1.27-4.57-0.54-5.42C780.97,417.52,749.53,404.73,749.53,404.73z"/>
		<path class="st3" d="M748.42,411.75c0.64-2.25,1.61-4.32,2.53-6.44c-0.9-0.37-1.41-0.57-1.41-0.57s-2.15,1.2-3.35,4.16
			c-0.34,0.84,0.46,2.41,1.86,4.28C748.15,412.7,748.28,412.21,748.42,411.75z"/>
		<path class="st3" d="M782.79,418.37c-0.19-0.09-0.7-0.31-1.46-0.63c-0.01,0.05-0.02,0.08-0.04,0.13c-0.38,1.29-0.8,2.59-1.34,3.81
			c-0.71,1.62-1.59,3.18-2.37,4.77c3.01-0.66,5.34-1.59,5.75-2.67C784.52,420.69,784.61,419.22,782.79,418.37z"/>
		<path class="st13" d="M797.12,389.43c0.2-4.14-11.92-9.4-11.92-9.4l-4.06-1.62l-3.98-1.8c0,0-12.19-5.09-15.04-2.08
			c-2.85,3.01-13.71,28.8-13.05,31.61c0.44,1.93,5.36,6.11,11.21,9.57c1.32,0.78,2.61,1.33,3.97,2c1.43,0.52,2.99,1.18,4.46,1.59
			c6.56,1.81,12.98,2.46,14.67,1.45C785.86,419.27,796.93,393.57,797.12,389.43z"/>
		<path class="st3" d="M796.24,388.81c0.18-3.91-11.27-8.88-11.27-8.88l-3.84-1.52l-3.76-1.71c0,0-11.53-4.81-14.21-1.97
			c-2.7,2.84-12.95,27.21-12.33,29.86c0.43,1.82,5.07,5.77,10.6,9.04c1.25,0.74,2.46,1.25,3.76,1.89c1.35,0.5,2.82,1.12,4.21,1.5
			c6.19,1.72,12.25,2.33,13.86,1.37C785.61,417,796.06,392.72,796.24,388.81z"/>
		<path class="st14" d="M766.06,415.89c-4.9-1.91-9.37-5.13-12.06-9.73c-1.68-2.88-2.36-5.87-2.43-8.95
			c-1.64,4.41-2.73,7.98-2.51,8.93c0.44,1.93,5.36,6.11,11.21,9.57c1.32,0.78,2.61,1.33,3.97,2c1.43,0.52,2.99,1.18,4.46,1.59
			c6.56,1.81,12.98,2.46,14.67,1.45c0.65-0.39,1.9-2.46,3.39-5.37C780.64,418.91,772.57,418.42,766.06,415.89z"/>
		<path class="st11" d="M778.47,385.24c3.46,1.38,7.19,2.11,10.91,2.3c2.11,0.1,4.61,0.25,6.6-0.65
			c-2.99-3.48-10.78-6.86-10.78-6.86l-4.06-1.62l-3.98-1.8c0,0-7.29-3.05-11.91-3.04C767.6,379.06,773.07,383.08,778.47,385.24z"/>
		<g>
			<g>
				<path class="st3" d="M772.52,366.97c-1.1,2.59-4.1,3.8-6.7,2.69l0,0c-2.59-1.1-3.8-4.1-2.7-6.69l1.41-3.29
					c1.1-2.6,4.1-3.8,6.7-2.7l0,0c2.59,1.11,3.8,4.1,2.69,6.7L772.52,366.97z"/>
				<path class="st15" d="M772.12,366.61c-0.99,2.33-3.69,3.42-6.03,2.43l0,0c-2.33-0.99-3.42-3.69-2.42-6.03l1.26-2.97
					c0.99-2.34,3.7-3.42,6.03-2.43l0,0c2.33,0.99,3.42,3.69,2.42,6.03L772.12,366.61z"/>
				<g>
					<path class="st16" d="M768.62,359.53c-0.23,0.53-0.84,0.78-1.37,0.55c-0.53-0.22-0.77-0.84-0.55-1.36
						c0.23-0.53,0.84-0.78,1.37-0.56C768.59,358.39,768.84,359,768.62,359.53z"/>
					<path class="st17" d="M767.88,358.82c-0.06,0.14-0.22,0.21-0.37,0.15c-0.14-0.06-0.21-0.23-0.15-0.37
						c0.06-0.15,0.23-0.21,0.37-0.15C767.88,358.51,767.94,358.67,767.88,358.82z"/>
					<path class="st17" d="M767.14,359.14c-0.03,0.07-0.11,0.09-0.17,0.07c-0.07-0.03-0.11-0.1-0.08-0.17
						c0.03-0.07,0.11-0.1,0.17-0.07C767.13,359,767.16,359.08,767.14,359.14z"/>
				</g>
				<g>
					<path class="st16" d="M766.72,363.48c-0.23,0.53-0.84,0.77-1.36,0.55c-0.53-0.23-0.78-0.84-0.55-1.36
						c0.22-0.53,0.83-0.78,1.37-0.55C766.7,362.34,766.95,362.95,766.72,363.48z"/>
					<path class="st17" d="M766,362.77c-0.07,0.14-0.23,0.21-0.37,0.15c-0.14-0.06-0.21-0.23-0.15-0.37
						c0.06-0.15,0.23-0.21,0.37-0.15C765.99,362.46,766.06,362.62,766,362.77z"/>
					<path class="st17" d="M765.24,363.1c-0.03,0.07-0.11,0.09-0.17,0.07c-0.06-0.03-0.09-0.11-0.07-0.17
						c0.03-0.06,0.11-0.1,0.17-0.06C765.23,362.95,765.27,363.03,765.24,363.1z"/>
				</g>
				<path class="st11" d="M771.22,356.98c-0.51-0.22-1.02-0.34-1.55-0.39c-1.53,1.79-2.59,3.93-3.37,6.16
					c-0.45,1.32-0.92,2.64-1.3,3.98c-0.19,0.66-0.42,1.35-0.57,2.05c0.4,0.35,0.86,0.65,1.38,0.87c2.59,1.11,5.59-0.1,6.7-2.69
					l1.4-3.3C775.02,361.08,773.81,358.09,771.22,356.98z"/>
			</g>
			<g>
				<path class="st3" d="M795.35,376.7c-1.1,2.59,0.1,5.59,2.7,6.69l0,0c2.6,1.1,5.59-0.1,6.7-2.7l1.4-3.29
					c1.1-2.6-0.1-5.59-2.7-6.7l0,0c-2.59-1.1-5.59,0.1-6.7,2.7L795.35,376.7z"/>
				<path class="st15" d="M795.89,376.73c-0.99,2.34,0.09,5.04,2.42,6.03l0,0c2.34,0.99,5.04-0.09,6.03-2.43l1.26-2.97
					c0.99-2.33-0.09-5.03-2.43-6.02l0,0c-2.34-1-5.03,0.09-6.03,2.43L795.89,376.73z"/>
				<g>
					<path class="st16" d="M803.42,374.35c-0.23,0.53,0.02,1.14,0.55,1.37c0.53,0.22,1.14-0.02,1.36-0.55
						c0.23-0.53-0.02-1.14-0.55-1.36C804.26,373.58,803.64,373.82,803.42,374.35z"/>
					<path class="st17" d="M804.44,374.38c-0.06,0.14,0,0.31,0.15,0.37c0.15,0.06,0.31,0,0.37-0.15c0.07-0.14,0-0.32-0.15-0.37
						C804.66,374.17,804.5,374.24,804.44,374.38z"/>
					<path class="st17" d="M804.73,375.15c-0.03,0.06,0,0.14,0.07,0.17c0.07,0.03,0.15-0.01,0.17-0.07
						c0.02-0.06-0.01-0.14-0.07-0.17C804.83,375.05,804.76,375.08,804.73,375.15z"/>
				</g>
				<g>
					<path class="st16" d="M801.88,378.45c-0.23,0.53,0.02,1.14,0.55,1.37c0.53,0.22,1.14-0.02,1.37-0.55
						c0.22-0.53-0.03-1.14-0.56-1.36C802.72,377.68,802.1,377.92,801.88,378.45z"/>
					<path class="st17" d="M802.9,378.48c-0.06,0.15,0.01,0.31,0.15,0.37c0.14,0.06,0.31-0.01,0.37-0.15
						c0.06-0.15-0.01-0.31-0.15-0.37C803.13,378.27,802.96,378.34,802.9,378.48z"/>
					<path class="st17" d="M803.19,379.25c-0.03,0.07,0,0.14,0.07,0.17c0.06,0.03,0.14,0,0.17-0.07c0.03-0.07,0-0.14-0.07-0.17
						C803.29,379.15,803.22,379.18,803.19,379.25z"/>
				</g>
				<path class="st11" d="M803.45,370.7c0.51,0.22,0.96,0.51,1.35,0.85c-0.23,2.34-1.03,4.58-2.11,6.69
					c-0.63,1.24-1.26,2.5-1.96,3.7c-0.34,0.6-0.69,1.23-1.08,1.83c-0.54-0.04-1.08-0.17-1.59-0.39c-2.59-1.1-3.8-4.1-2.7-6.69
					l1.4-3.3C797.86,370.81,800.86,369.6,803.45,370.7z"/>
			</g>
			<g>
				<path class="st3" d="M795.38,350.85c-0.69-0.4-1.41-0.76-2.18-1.09c-0.78-0.32-1.54-0.59-2.3-0.81
					c-9.97-2.89-18.77,2.79-22.21,10.87c-3.9,9.17-4.44,13.37,2.76,19.53c1.56,1.33,4.34,3.19,7.47,4.37
					c3.02,1.44,5.98,2.02,8.02,2.23c9.43,0.92,12.09-2.38,15.99-11.55C806.38,366.32,804.37,356.04,795.38,350.85z"/>
				<path class="st5" d="M765.89,369.15c-0.21,3.66,1.35,6.59,5.57,10.21c1.56,1.33,4.34,3.19,7.47,4.37
					c3.02,1.44,5.98,2.02,8.02,2.23c5.89,0.57,9.14-0.5,11.69-3.61C789.89,374.26,777.76,369.84,765.89,369.15z"/>
				<path class="st18" d="M773.05,356.3c0.55,0.48,1.06-0.35,1.51-0.72c1.05-0.87,2.16-1.69,3.35-2.37c2.18-1.24,4.5-2.11,7-2.38
					c-0.07-0.89-0.3-1.75-0.56-2.59c-5.07,0.38-9.5,2.92-12.58,6.6C772.15,355.36,772.56,355.89,773.05,356.3z"/>
				<path class="st18" d="M801.53,363.57c0.1,0.97,0.18,1.93,0.23,2.89c0.02-0.01,0.05-0.01,0.07-0.02
					c0.89-0.26,1.78-0.47,2.66-0.72c-0.12-2.63-0.79-5.23-2.04-7.61c-0.67,0.31-1.34,0.61-2,0.92
					C800.91,360.51,801.36,361.99,801.53,363.57z"/>
				<path class="st11" d="M799.78,374.16c-3.21,7.54-12.24,10.91-20.17,7.54c-7.93-3.38-11.76-12.23-8.55-19.77
					c3.21-7.54,12.24-10.91,20.18-7.53C799.16,357.77,802.99,366.62,799.78,374.16z"/>
				<g>
					
						<radialGradient id="SVGID_1_" cx="649.3911" cy="492.3846" r="19.0512" gradientTransform="matrix(0.9201 0.3917 -0.3917 0.9201 375.9737 -341.5159)" gradientUnits="userSpaceOnUse">
						<stop  offset="0.1486" style="stop-color:#21687E"/>
						<stop  offset="0.491" style="stop-color:#023F5F"/>
						<stop  offset="0.9801" style="stop-color:#000000"/>
					</radialGradient>
					<path class="st19" d="M799.27,372.96c-3.01,7.08-11.5,10.25-18.95,7.08c-7.46-3.17-11.05-11.49-8.04-18.57
						c3.02-7.08,11.5-10.25,18.96-7.08C798.68,357.57,802.28,365.88,799.27,372.96z"/>
					
						<radialGradient id="SVGID_2_" cx="653.8675" cy="470.2387" r="38.0501" gradientTransform="matrix(0.9201 0.3917 -0.3917 0.9201 375.9737 -341.5159)" gradientUnits="userSpaceOnUse">
						<stop  offset="0.2849" style="stop-color:#21687E"/>
						<stop  offset="0.4225" style="stop-color:#0D3B59"/>
						<stop  offset="0.5885" style="stop-color:#05294A"/>
						<stop  offset="0.7076" style="stop-color:#031B31"/>
						<stop  offset="0.8978" style="stop-color:#01070D"/>
						<stop  offset="1" style="stop-color:#000000"/>
					</radialGradient>
					<path class="st20" d="M800.27,366.53c-0.02,1.99-0.48,3.96-1.54,5.84c-2.47,4.37-7.59,6.44-12.45,5.85
						c-4.43-0.54-9.34-2.71-12.02-6.4c-4.09-5.61-1.72-12.44,3.13-16.39c-2.22,1.42-4.02,3.47-5.12,6.03
						c-3.01,7.08,0.58,15.4,8.04,18.57c7.45,3.18,15.94,0,18.95-7.08C800.15,370.87,800.46,368.68,800.27,366.53z"/>
					
						<radialGradient id="SVGID_3_" cx="637.1756" cy="480.8946" r="23.9419" gradientTransform="matrix(0.9201 0.3917 -0.3917 0.9201 375.9737 -341.5159)" gradientUnits="userSpaceOnUse">
						<stop  offset="0.2851" style="stop-color:#FFFFFF"/>
						<stop  offset="0.6912" style="stop-color:#6C6C6C"/>
						<stop  offset="1" style="stop-color:#000000"/>
					</radialGradient>
					<path class="st21" d="M773.05,364.81c-0.22,0.8-0.39,1.6-0.48,2.41c-0.08,0.68-0.1,1.35-0.09,2.03
						c0.37,0.76,0.79,1.51,1.25,2.24c0.73,1.19,1.52,2.36,2.45,3.41c-0.36-2.23-0.26-4.55,0.25-6.75
						C775.25,367.07,774.08,366.01,773.05,364.81z"/>
					
						<radialGradient id="SVGID_4_" cx="637.1737" cy="480.9135" r="23.9254" gradientTransform="matrix(0.9201 0.3917 -0.3917 0.9201 375.9737 -341.5159)" gradientUnits="userSpaceOnUse">
						<stop  offset="0.2851" style="stop-color:#FFFFFF"/>
						<stop  offset="0.6912" style="stop-color:#6C6C6C"/>
						<stop  offset="1" style="stop-color:#000000"/>
					</radialGradient>
					<path class="st22" d="M789.85,355.11c-4.03-1.13-8.65-0.71-11.96,2.02c-1.86,1.53-3.31,3.6-4.23,5.87
						c1.01,1.01,2.13,1.94,3.2,2.84c0.07,0.05,0.13,0.12,0.2,0.17c0.43-1.18,0.98-2.31,1.63-3.36c1.85-2.91,4.58-5.26,7.96-6.13
						c1.86-0.48,3.85-0.65,5.79-0.43C791.6,355.69,790.74,355.36,789.85,355.11z"/>
				</g>
			</g>
		</g>
		<path class="st23" d="M786.28,392.44l-2.61-1.11l-13.85-5.89l-2.6-1.11c-2.59-1.1-3.87,0.72-4.85,2.17l-3.92,9.2l-3.07,7.22
			l-0.11,0.26l0.05,0.03c-0.34,1.67-0.59,3.67,1.85,4.71l2.61,1.11l13.85,5.9l2.61,1.11c2.44,1.04,3.72-0.52,4.68-1.93l0.06,0.02
			l0.11-0.26l3.07-7.22l3.92-9.2C788.44,395.72,788.87,393.54,786.28,392.44z"/>
		<path class="st3" d="M785.68,392.63l-2.46-1.04l-13.03-5.55l-2.46-1.05c-2.44-1.03-3.63,0.67-4.56,2.05l-3.68,8.66l-2.89,6.79
			l-0.11,0.25l0.05,0.02c-0.33,1.57-0.56,3.45,1.74,4.43l2.46,1.04l13.03,5.55l2.46,1.05c2.3,0.98,3.5-0.5,4.4-1.81l0.06,0.02
			l0.1-0.25l2.89-6.79l3.69-8.66C787.71,395.72,788.11,393.67,785.68,392.63z"/>
		<g>
			<path class="st15" d="M780.17,407.59l-0.57-0.24l-3.01-1.29l-0.57-0.24c-0.57-0.24-0.85,0.16-1.06,0.47l-0.86,2l-0.67,1.58
				l-0.02,0.05l0.01,0.01c-0.07,0.36-0.12,0.8,0.41,1.03l0.57,0.24l3.01,1.28l0.57,0.24c0.53,0.23,0.81-0.12,1.02-0.42l0.01,0.01
				l0.03-0.06l0.66-1.57l0.85-2.01C780.64,408.3,780.73,407.82,780.17,407.59z"/>
			<path class="st3" d="M779.78,407.72l-0.49-0.21l-2.6-1.11l-0.49-0.21c-0.49-0.21-0.73,0.13-0.92,0.41l-0.74,1.73l-0.58,1.36
				l-0.02,0.05l0.01,0c-0.07,0.31-0.11,0.69,0.35,0.89l0.49,0.21l2.6,1.11l0.49,0.21c0.46,0.19,0.7-0.1,0.88-0.37l0.01,0l0.02-0.05
				l0.58-1.36l0.74-1.73C780.19,408.34,780.27,407.93,779.78,407.72z"/>
			<path class="st3" d="M779.28,407.89l-0.4-0.16l-2.07-0.89l-0.39-0.16c-0.38-0.17-0.5-0.09-0.58-0.02l-0.21,0.5l-0.17,0.4
				l-0.01,0.01l0.01,0c0.01,0.1,0.05,0.24,0.42,0.39l0.4,0.17l2.07,0.88l0.4,0.17c0.36,0.16,0.49,0.09,0.57,0.03l0.01,0l0.01-0.02
				l0.16-0.39l0.22-0.5C779.69,408.19,779.67,408.05,779.28,407.89z"/>
			<path class="st3" d="M784.96,394.34l-1.1-0.47l-5.87-2.49l-1.1-0.48c-0.25-0.1-0.98-0.41-1.23-0.52l-1.11-0.48l-5.87-2.49
				l-1.1-0.48c-1.1-0.46-1.51,0-1.83,0.38l-1.07,2.52l-0.84,1.97l-0.03,0.07l0.02,0.01c-0.04,0.48-0.03,1.06,1,1.5l1.11,0.47
				l5.87,2.5l1.11,0.48c0.25,0.1,0.97,0.41,1.22,0.52l1.11,0.47l5.87,2.5l1.11,0.47c1.04,0.44,1.46,0.05,1.77-0.31l0.02,0.01
				l0.03-0.08l0.84-1.97l1.07-2.52C786,395.43,786.06,394.81,784.96,394.34z"/>
			<path class="st15" d="M774.07,404.98l-0.57-0.24l-3.01-1.29l-0.57-0.24c-0.56-0.24-0.84,0.16-1.06,0.48L768,405.7l-0.66,1.57
				l-0.02,0.06l0.01,0c-0.08,0.37-0.13,0.8,0.41,1.03l0.57,0.24l3.01,1.28l0.57,0.25c0.54,0.22,0.8-0.12,1.02-0.42l0.01,0l0.03-0.06
				l0.67-1.58l0.85-2C774.53,405.7,774.63,405.22,774.07,404.98z"/>
			<path class="st3" d="M773.67,405.12l-0.49-0.21l-2.6-1.11l-0.49-0.21c-0.49-0.21-0.73,0.14-0.92,0.41l-0.74,1.73l-0.57,1.36
				l-0.02,0.05l0.01,0.01c-0.06,0.32-0.11,0.69,0.35,0.89l0.49,0.21l2.61,1.11l0.49,0.21c0.46,0.2,0.7-0.1,0.88-0.36l0.01,0
				l0.02-0.05l0.57-1.36l0.74-1.74C774.08,405.73,774.17,405.32,773.67,405.12z"/>
			<path class="st3" d="M773.17,405.29l-0.39-0.17l-2.08-0.89l-0.39-0.17c-0.39-0.17-0.5-0.08-0.58-0.01l-0.21,0.5l-0.17,0.4
				l-0.01,0.01l0.01,0c0.01,0.1,0.05,0.23,0.41,0.39l0.4,0.16l2.07,0.88l0.39,0.17c0.37,0.15,0.49,0.09,0.57,0.03l0.01,0l0-0.01
				l0.16-0.39l0.22-0.5C773.58,405.59,773.56,405.45,773.17,405.29z"/>
			<g>
				<path class="st5" d="M774.45,401.29c-0.3,0.7-1.11,1.03-1.82,0.73l0,0c-0.7-0.3-1.03-1.11-0.73-1.81l0,0
					c0.31-0.7,1.11-1.03,1.81-0.73l0,0C774.42,399.78,774.74,400.59,774.45,401.29L774.45,401.29z"/>
				<path class="st5" d="M777.96,402.79c-0.3,0.7-1.11,1.02-1.81,0.72l0,0c-0.7-0.3-1.03-1.11-0.73-1.81l0,0
					c0.3-0.7,1.11-1.03,1.81-0.73l0,0C777.93,401.28,778.25,402.08,777.96,402.79L777.96,402.79z"/>
				<path class="st5" d="M781.47,404.28c-0.3,0.7-1.11,1.02-1.81,0.72l0,0c-0.7-0.29-1.02-1.1-0.73-1.81l0,0
					c0.3-0.7,1.11-1.02,1.81-0.73l0,0C781.44,402.77,781.77,403.58,781.47,404.28L781.47,404.28z"/>
			</g>
			
				<rect x="758.59" y="397.02" transform="matrix(0.3916 -0.9201 0.9201 0.3916 96.0449 947.239)" class="st5" width="11.45" height="7.94"/>
			<g>
				<g>
					
						<rect x="762.6" y="395.65" transform="matrix(0.3912 -0.9203 0.9203 0.3912 99.8476 944.3099)" class="st3" width="2.08" height="2.08"/>
					
						<rect x="764.72" y="396.55" transform="matrix(0.3926 -0.9197 0.9197 0.3926 99.4733 945.8027)" class="st3" width="2.08" height="2.08"/>
					
						<rect x="766.84" y="397.46" transform="matrix(0.3926 -0.9197 0.9197 0.3926 99.9309 948.3034)" class="st3" width="2.08" height="2.08"/>
					
						<rect x="761.64" y="397.9" transform="matrix(0.392 -0.92 0.92 0.392 96.6818 944.174)" class="st3" width="2.08" height="2.08"/>
					<polygon class="st3" points="765.35,401.21 763.43,400.4 764.25,398.48 766.17,399.3 					"/>
					
						<rect x="765.89" y="399.71" transform="matrix(0.3921 -0.9199 0.9199 0.3921 97.543 949.1136)" class="st3" width="2.08" height="2.08"/>
				</g>
				<g>
					
						<rect x="760.66" y="400.19" transform="matrix(0.3901 -0.9208 0.9208 0.3901 95.1172 946.0659)" class="st3" width="2.09" height="2.08"/>
					<polygon class="st3" points="764.38,403.5 762.46,402.69 763.28,400.77 765.2,401.59 					"/>
					
						<rect x="764.91" y="402" transform="matrix(0.3938 -0.9192 0.9192 0.3938 93.8307 948.3643)" class="st3" width="2.08" height="2.08"/>
					
						<rect x="759.71" y="402.44" transform="matrix(0.3928 -0.9196 0.9196 0.3928 90.8938 944.6191)" class="st3" width="2.08" height="2.08"/>
					<polygon class="st3" points="763.42,405.76 761.5,404.94 762.32,403.02 764.23,403.84 					"/>
					
						<rect x="763.95" y="404.25" transform="matrix(0.3906 -0.9206 0.9206 0.3906 93.091 951.2036)" class="st3" width="2.08" height="2.08"/>
				</g>
			</g>
			
				<linearGradient id="SVGID_5_" gradientUnits="userSpaceOnUse" x1="657.1298" y1="515.0493" x2="657.1298" y2="524.8387" gradientTransform="matrix(0.9201 0.3917 -0.3917 0.9201 375.9737 -341.5159)">
				<stop  offset="0.1486" style="stop-color:#21687E"/>
				<stop  offset="0.491" style="stop-color:#023F5F"/>
				<stop  offset="0.9801" style="stop-color:#000000"/>
			</linearGradient>
			<path class="st24" d="M784.45,395.05l-0.84-0.36l-4.45-1.9l-0.84-0.36c-0.19-0.09-0.73-0.32-0.93-0.4l-0.85-0.35l-4.45-1.9
				l-0.84-0.36c-0.83-0.36-1.15,0.01-1.38,0.29l-0.81,1.91l-0.64,1.5l-0.03,0.05l0.02,0.01c-0.03,0.36-0.03,0.81,0.76,1.14
				l0.85,0.36l4.45,1.9l0.84,0.36c0.19,0.08,0.74,0.32,0.93,0.4l0.84,0.36l4.46,1.9l0.84,0.36c0.79,0.33,1.12,0.03,1.35-0.24
				l0.01,0.01l0.02-0.05l0.64-1.5l0.81-1.91C785.25,395.87,785.29,395.4,784.45,395.05z"/>
			<path class="st25" d="M776.31,394.47c1.93,0.77,3.92,1.46,5.98,1.75c0.72,0.1,1.5,0.21,2.27,0.19l0.11-0.26
				c0.04-0.35,0.07-0.79-0.7-1.12l-12.37-5.26c-0.78-0.33-1.07,0-1.29,0.27l-0.15,0.35C771.37,392.51,774.16,393.61,776.31,394.47z"
				/>
		</g>
		<g>
			<path class="st26" d="M746.93,454.42c0.61-2.06,0.45-4.64-0.91-6.38c-2.03-2.6-6.26-2.27-8.94-1.09
				c-1.63,0.72-2.95,1.68-4.13,3.02c-0.53,0.61-1.01,1.26-1.48,1.93c-0.41,0.44-0.81,0.89-1.21,1.34c-1.02,1.17-1.87,2.47-2.73,3.76
				c-1.39,2.08-2.74,4.35-3.09,6.86c-0.64,4.59,4.25,7.73,8.36,7.05c2.13-0.35,4.01-1.61,5.52-3.1c0.92-0.9,1.69-1.93,2.44-2.96
				c0.92-1.26,1.89-2.48,2.76-3.78C744.89,459.02,746.23,456.79,746.93,454.42z"/>
			<path class="st3" d="M740.73,456.46c2.54-0.48,4.86-1.76,6.33-3.92c0.07-0.1,0.13-0.21,0.2-0.31c0.03-1.49-0.34-3.02-1.24-4.19
				c-2.03-2.6-6.26-2.27-8.94-1.09c-1.63,0.72-2.95,1.68-4.13,3.02c-0.26,0.3-0.51,0.61-0.75,0.93
				C733.1,454.72,736.59,457.24,740.73,456.46z"/>
			<path class="st3" d="M733.72,458.89c-1.88-0.97-4.07-1.83-6.21-1.87c-1.38,2.08-2.72,4.34-3.07,6.84
				c-0.64,4.59,4.25,7.73,8.36,7.05c2.13-0.35,4.01-1.61,5.52-3.1c0.68-0.66,1.28-1.41,1.85-2.16
				C738.71,462.81,736.73,460.43,733.72,458.89z"/>
			<path class="st5" d="M746.93,454.42c0.61-2.06,0.45-4.64-0.91-6.38c-0.32-0.41-0.69-0.74-1.1-1.01c1.11,1.31,1.63,3.12,1.47,5.07
				c-0.31,3.81-2.98,7.29-5.39,10.1c-2.74,3.2-6.27,5.9-10.71,5.58c-1.86-0.13-4.21-0.78-5.1-2.62c-0.45-0.92-0.48-1.91-0.4-2.9
				c-0.15,0.52-0.28,1.06-0.36,1.6c-0.64,4.59,4.25,7.73,8.36,7.05c2.13-0.35,4.01-1.61,5.52-3.1c0.92-0.9,1.69-1.93,2.44-2.96
				c0.92-1.26,1.89-2.48,2.76-3.78C744.89,459.02,746.23,456.79,746.93,454.42z"/>
			<path class="st5" d="M739.4,455.13c1.79,0.02,3.69-0.39,5.02-1.66c0.52-0.49,0.94-1.06,1.29-1.66c0.04-0.12,0.06-0.25,0.08-0.36
				c2.36-13.48,1.11-14.22,4.89-17.71c3.77-3.48,9.86-8.5,9.43-10.47c-1.37-6.35-8.91-12.97-8.91-12.97s-3.11-2.01-4.41-1.24
				c-1.3,0.77-13,11.72-14.64,19.7c-1.32,6.4,0,17.91,0.58,22.2C733.67,453.61,736.46,455.11,739.4,455.13z"/>
			<path class="st3" d="M737.45,432.37c2.63,0.87,5.95-0.07,6.48-3.16c0.71-4.06-3.71-8.51-7.82-8.54c-1.9,2.71-3.45,5.56-3.97,8.09
				c0,0.01-0.01,0.03-0.01,0.05C733.62,430.36,735.46,431.71,737.45,432.37z"/>
			<path class="st5" d="M736.25,430.08c1.83,0.61,4.12-0.05,4.49-2.19c0.5-2.81-2.57-5.9-5.42-5.92c-1.32,1.88-2.39,3.85-2.75,5.61
				c-0.01,0.01,0,0.02-0.01,0.03C733.59,428.68,734.87,429.62,736.25,430.08z"/>
			<path class="st3" d="M746.38,421.91c2.95,2.37,5.95,5.65,6.97,9.43c3.43-3.09,7.11-6.51,6.77-8.06
				c-1.37-6.35-8.91-12.97-8.91-12.97s-3.11-2.01-4.41-1.24c-0.76,0.46-5.06,4.36-8.83,9.13
				C741.02,418.32,744.08,420.07,746.38,421.91z"/>
			<path class="st3" d="M737.86,440.51c2.09,0.63,4.34,0.74,6.47,0.21c0.92-0.23,2.22-0.57,3.26-1.17c0.31-1.8,0.65-2.89,1.4-3.96
				c-3.36,0.38-6.99-0.53-10.01-1.69c-2.27-0.87-5.47-2.34-6.92-4.65c-0.3,1.65-0.43,3.6-0.47,5.64
				C732.64,437.66,734.85,439.61,737.86,440.51z"/>
			<path class="st17" d="M739.96,435.77c2.84,0.79,6.09,0.97,8.91-0.01c0.04-0.06,0.07-0.11,0.11-0.17
				c-3.36,0.38-6.99-0.53-10.01-1.69c-2.27-0.87-5.47-2.34-6.92-4.65c-0.11,0.63-0.21,1.3-0.27,2
				C733.69,433.62,737.23,435.02,739.96,435.77z"/>
			<path class="st14" d="M750.68,433.75c3.77-3.48,9.86-8.5,9.43-10.47c-1.37-6.35-8.91-12.97-8.91-12.97s-1.26-0.81-2.51-1.2
				c0.41,0.22,0.82,0.5,1.2,0.84c1.34,1.21,2.4,2.74,3.24,4.35c0.69,1.33,1.53,3.02,1.33,4.59c-0.35,2.65-3.14,4.64-4.99,6.34
				c-2.48,2.28-5.12,4.95-6.58,8.04c-1.42,3.02-1.54,6.52-1.49,9.8c0.03,1.62,0.1,3.25,0.15,4.87c0.04,1.29,0.25,2.67,0.06,3.95
				c-0.31,2.1-1.63,2.96-3.25,3.17c0.34,0.05,0.68,0.07,1.03,0.07c1.79,0.02,3.69-0.39,5.02-1.66c0.52-0.49,0.94-1.06,1.29-1.66
				c0.04-0.12,0.06-0.25,0.08-0.36C748.15,437.97,746.9,437.24,750.68,433.75z"/>
			<path class="st12" d="M747.65,410.13c0,0-13.25,11.74-14.66,18.26c-1.4,6.51,0.59,22.19,0.59,22.19s-1.07-17.36,0.91-23.16
				c1.98-5.8,15.82-14.33,15.82-14.33L747.65,410.13z"/>
			<path class="st17" d="M738.48,459.46c-0.07-0.03-0.13-0.07-0.18-0.11c-4.53-3.97-7.93-3.64-7.95-3.63
				c-0.37,0.05-0.71-0.23-0.76-0.6c-0.04-0.37,0.23-0.71,0.6-0.75c0.16-0.02,4.03-0.4,9.01,3.96c0.28,0.25,0.31,0.68,0.06,0.96
				C739.06,459.51,738.74,459.57,738.48,459.46z"/>
			<path class="st17" d="M736.96,462.09c-0.07-0.03-0.14-0.07-0.2-0.13c-4.54-4.37-8.2-4.1-8.23-4.09c-0.37,0.03-0.7-0.25-0.73-0.62
				c-0.03-0.37,0.24-0.7,0.61-0.74c0.17-0.02,4.31-0.33,9.3,4.47c0.27,0.26,0.28,0.69,0.02,0.96
				C737.52,462.15,737.21,462.21,736.96,462.09z"/>
		</g>
		<g>
			<path class="st26" d="M747.87,462.91c-0.33,1.53-0.54,3.07-0.82,4.62c-0.22,1.25-0.43,2.53-0.45,3.81
				c-0.02,2.12,0.36,4.34,1.59,6.12c2.36,3.43,8.02,4.79,10.88,1.14c1.56-2,2.27-4.55,2.8-6.98c0.33-1.51,0.68-3.03,0.82-4.57
				c0.05-0.6,0.09-1.2,0.13-1.8c0.14-0.8,0.29-1.6,0.36-2.41c0.15-1.77-0.07-3.39-0.68-5.06c-1.01-2.75-3.7-6.03-6.98-5.69
				c-2.2,0.23-4.17,1.9-5.24,3.77C749.07,458,748.39,460.51,747.87,462.91z"/>
			<path class="st3" d="M753.12,461.73c-1.41-2.16-2.1-4.71-1.57-7.28c0.03-0.12,0.06-0.24,0.09-0.36c1.06-1.06,2.42-1.85,3.88-2
				c3.28-0.34,5.97,2.94,6.98,5.69c0.61,1.66,0.83,3.29,0.68,5.06c-0.04,0.4-0.09,0.79-0.15,1.19
				C759.67,466.03,755.43,465.27,753.12,461.73z"/>
			<path class="st3" d="M756.23,468.47c2,0.69,4.14,1.66,5.65,3.18c-0.53,2.43-1.23,4.96-2.79,6.95c-2.86,3.65-8.52,2.29-10.88-1.14
				c-1.23-1.78-1.61-4.01-1.59-6.12c0.01-0.95,0.13-1.9,0.28-2.84C749.95,467.6,753.04,467.37,756.23,468.47z"/>
			<path class="st5" d="M750.29,455.86c1.07-1.87,3.03-3.54,5.24-3.77c0.51-0.05,1.01-0.02,1.49,0.09
				c-1.71,0.11-3.38,0.99-4.67,2.45c-2.54,2.87-3.2,7.2-3.55,10.89c-0.41,4.19,0.09,8.61,3.4,11.59c1.39,1.25,3.48,2.49,5.42,1.85
				c0.98-0.32,1.71-0.98,2.36-1.72c-0.27,0.48-0.56,0.93-0.9,1.36c-2.86,3.65-8.52,2.29-10.88-1.14c-1.23-1.78-1.61-4.01-1.59-6.12
				c0.02-1.29,0.22-2.56,0.45-3.81c0.27-1.55,0.48-3.09,0.82-4.62C748.39,460.51,749.07,458,750.29,455.86z"/>
			<path class="st5" d="M755,461.78c-1.26-1.28-2.27-2.92-2.29-4.77c-0.01-0.72,0.11-1.41,0.3-2.08c0.06-0.11,0.13-0.21,0.21-0.31
				c8.09-11.04,9.48-10.66,9.38-15.8c-0.11-5.14-0.71-13,1.01-14.06c5.52-3.41,15.52-2.56,15.52-2.56s3.61,0.84,3.96,2.32
				c0.34,1.47,0.56,17.49-4.05,24.2c-3.7,5.39-12.91,12.42-16.4,14.98C760.07,464.84,757.06,463.87,755,461.78z"/>
			<path class="st3" d="M772.76,447.4c-2.45-1.29-4.07-4.33-2.21-6.87c2.43-3.32,8.7-3.22,11.58-0.28
				c-0.64,3.25-1.62,6.33-3.09,8.47c-0.01,0.02-0.02,0.03-0.02,0.04C776.87,448.77,774.61,448.38,772.76,447.4z"/>
			<path class="st5" d="M775.25,446.68c-1.71-0.89-2.83-3-1.54-4.76c1.69-2.31,6.04-2.24,8.03-0.21c-0.44,2.26-1.12,4.4-2.13,5.88
				c-0.01,0.01-0.01,0.02-0.02,0.03C778.1,447.63,776.54,447.36,775.25,446.68z"/>
			<path class="st3" d="M774.11,433.72c-3.75-0.49-8.2-0.38-11.63,1.51c-0.14-4.61-0.23-9.63,1.13-10.46
				c5.52-3.41,15.52-2.56,15.52-2.56s3.61,0.84,3.96,2.32c0.2,0.85,0.36,6.66-0.46,12.68C780.41,435.09,777.02,434.1,774.11,433.72z
				"/>
			<path class="st3" d="M766.61,452.75c-1.9-1.07-3.54-2.61-4.63-4.52c-0.47-0.82-1.13-2-1.41-3.16c1.08-1.47,1.64-2.47,1.88-3.75
				c2.05,2.69,5.23,4.67,8.15,6.05c2.2,1.03,5.49,2.32,8.14,1.77c-0.99,1.35-2.29,2.8-3.75,4.25
				C772.28,454.53,769.34,454.3,766.61,452.75z"/>
			<path class="st17" d="M768.57,447.95c-2.53-1.5-4.92-3.71-6.16-6.43c0.01-0.07,0.03-0.13,0.05-0.2c2.05,2.69,5.23,4.67,8.15,6.05
				c2.2,1.03,5.49,2.32,8.14,1.77c-0.37,0.51-0.79,1.04-1.25,1.57C774.47,450.98,771,449.39,768.57,447.95z"/>
			<path class="st14" d="M762.6,438.82c-0.11-5.14-0.71-13,1.01-14.06c5.52-3.41,15.52-2.56,15.52-2.56s1.46,0.34,2.6,0.97
				c-0.44-0.15-0.92-0.24-1.43-0.27c-1.81-0.12-3.65,0.17-5.38,0.68c-1.44,0.42-3.24,0.99-4.23,2.22c-1.67,2.09-1.17,5.49-1.11,7.98
				c0.07,3.37-0.03,7.13-1.24,10.32c-1.19,3.12-3.63,5.63-6.03,7.87c-1.19,1.1-2.41,2.17-3.61,3.26c-0.96,0.86-2.1,1.67-2.89,2.7
				c-1.3,1.68-1,3.22-0.03,4.54c-0.27-0.21-0.53-0.44-0.77-0.69c-1.26-1.28-2.27-2.92-2.29-4.77c-0.01-0.72,0.11-1.41,0.3-2.08
				c0.06-0.11,0.13-0.21,0.21-0.31C761.31,443.58,762.7,443.96,762.6,438.82z"/>
			<path class="st12" d="M781.72,424.63c0,0,0.73,17.69-2.99,23.22c-3.73,5.54-16.4,14.96-16.4,14.96s13.25-11.26,16.06-16.7
				c2.81-5.44-0.63-21.33-0.63-21.33L781.72,424.63z"/>
			<path class="st17" d="M752.52,465.44c0.07,0.02,0.14,0.04,0.21,0.05c6,0.52,8.11,3.19,8.13,3.22c0.23,0.29,0.65,0.35,0.95,0.12
				c0.29-0.22,0.35-0.65,0.12-0.95c-0.1-0.13-2.5-3.18-9.09-3.75c-0.37-0.03-0.7,0.25-0.74,0.62
				C752.09,465.05,752.26,465.32,752.52,465.44z"/>
			<path class="st17" d="M751.67,468.36c0.08,0.03,0.16,0.05,0.24,0.05c6.29,0.25,8.64,3.07,8.66,3.1c0.24,0.29,0.66,0.34,0.95,0.1
				c0.29-0.24,0.33-0.66,0.1-0.95c-0.11-0.14-2.76-3.34-9.66-3.61c-0.38-0.01-0.69,0.28-0.71,0.65
				C751.25,468,751.42,468.25,751.67,468.36z"/>
		</g>
		<path class="st3" d="M752.38,405.97c0,0,5.27-16.65,8.85-22.05c0,0,1.75-2.87,3.74-2.68c2,0.18,10.27,5.1,10.27,5.1l-9.07-3.47
			c0,0-2.41-0.84-4.4,2.56C759.62,389.12,760.06,388.96,752.38,405.97z"/>
		<path class="st3" d="M780.84,418.08c0,0,8.35-15.33,9.77-21.67c0,0,0.86-3.25-0.66-4.56c-1.52-1.31-10.8-3.86-10.8-3.86l8.79,4.14
			c0,0,2.27,1.15,1.2,4.94C787.97,401.19,787.78,400.75,780.84,418.08z"/>
	</g>
</g>
</svg>
